# MagicaVoxel @ Ephtracy

# group
o 

# material
mtllib turtle_7.mtl
usemtl palette

# normals
vn -1 0 0
vn 1 0 0
vn 0 0 1
vn 0 0 -1
vn 0 -1 0
vn 0 1 0

# texcoords
vt 0.0371094 0.5
vt 0.0839844 0.5
vt 0.537109 0.5
vt 0.701172 0.5
vt 0.720703 0.5
vt 0.841797 0.5
vt 0.994141 0.5

# verts
v -1.3 0.3 0.0999999
v -1.3 0.3 -0.1
v -1.3 0.4 0.2
v -1.3 0.4 0.0999999
v -1.3 0.4 -0.1
v -1.3 0.4 -0.2
v -1.3 0.5 0.2
v -1.3 0.5 0.0999999
v -1.3 0.5 -0.1
v -1.3 0.5 -0.2
v -1.3 0.6 0.2
v -1.3 0.6 0.0999999
v -1.3 0.6 -0.1
v -1.3 0.6 -0.2
v -1.2 0.3 0.2
v -1.2 0.3 0.0999999
v -1.2 0.3 -0.1
v -1.2 0.3 -0.2
v -1.2 0.4 0.3
v -1.2 0.4 0.2
v -1.2 0.4 0.0999999
v -1.2 0.4 -0.1
v -1.2 0.4 -0.2
v -1.2 0.4 -0.3
v -1.2 0.5 0.3
v -1.2 0.5 0.2
v -1.2 0.5 0.0999999
v -1.2 0.5 -0.1
v -1.2 0.5 -0.2
v -1.2 0.5 -0.3
v -1.2 0.6 0.2
v -1.2 0.6 0.0999999
v -1.2 0.6 -0.1
v -1.2 0.6 -0.2
v -1.2 0.7 0.2
v -1.2 0.7 -0.2
v -1.1 0.5 0.3
v -1.1 0.5 0.2
v -1.1 0.5 -0.2
v -1.1 0.5 -0.3
v -1.1 0.6 0.3
v -1.1 0.6 0.2
v -1.1 0.6 -0.2
v -1.1 0.6 -0.3
v -0.8 0 0.4
v -0.8 0 0.2
v -0.8 0 -0.2
v -0.8 0 -0.4
v -0.8 0.1 0.4
v -0.8 0.1 0.2
v -0.8 0.1 -0.2
v -0.8 0.1 -0.4
v -0.8 0.3 0.5
v -0.8 0.3 -0.5
v -0.8 0.4 0.5
v -0.8 0.4 0.2
v -0.8 0.4 0.0999999
v -0.8 0.4 -0.1
v -0.8 0.4 -0.2
v -0.8 0.4 -0.5
v -0.8 0.6 0.2
v -0.8 0.6 0.0999999
v -0.8 0.6 -0.1
v -0.8 0.6 -0.2
v -0.8 0.7 0.0999999
v -0.8 0.7 -0.1
v -0.7 0.1 0.4
v -0.7 0.1 0.2
v -0.7 0.1 -0.2
v -0.7 0.1 -0.4
v -0.7 0.2 0.4
v -0.7 0.2 0.2
v -0.7 0.2 -0.2
v -0.7 0.2 -0.4
v -0.7 0.3 0.6
v -0.7 0.3 0.5
v -0.7 0.3 0.4
v -0.7 0.3 -0.4
v -0.7 0.3 -0.5
v -0.7 0.3 -0.6
v -0.7 0.4 0.6
v -0.7 0.4 0.5
v -0.7 0.4 0.4
v -0.7 0.4 0.2
v -0.7 0.4 -0.2
v -0.7 0.4 -0.4
v -0.7 0.4 -0.5
v -0.7 0.4 -0.6
v -0.7 0.6 0.2
v -0.7 0.6 0.0999999
v -0.7 0.6 -0.1
v -0.7 0.6 -0.2
v -0.7 0.7 0.4
v -0.7 0.7 0.3
v -0.7 0.7 0.0999999
v -0.7 0.7 -0.1
v -0.7 0.7 -0.3
v -0.7 0.7 -0.4
v -0.7 0.8 0.3
v -0.7 0.8 -0.3
v -0.6 0.4 0.5
v -0.6 0.4 0.4
v -0.6 0.4 -0.4
v -0.6 0.4 -0.5
v -0.6 0.6 0.5
v -0.6 0.6 0.4
v -0.6 0.6 -0.4
v -0.6 0.6 -0.5
v -0.6 0.7 0.4
v -0.6 0.7 0.3
v -0.6 0.7 -0.3
v -0.6 0.7 -0.4
v -0.6 0.8 0.4
v -0.6 0.8 0.3
v -0.6 0.8 -0.3
v -0.6 0.8 -0.4
v -0.5 0.6 0.5
v -0.5 0.6 0.4
v -0.5 0.6 -0.4
v -0.5 0.6 -0.5
v -0.5 0.7 0.5
v -0.5 0.7 0.4
v -0.5 0.7 -0.4
v -0.5 0.7 -0.5
v 0.2 0 0.4
v 0.2 0 0.2
v 0.2 0 -0.2
v 0.2 0 -0.4
v 0.2 0.1 0.4
v 0.2 0.1 0.2
v 0.2 0.1 -0.2
v 0.2 0.1 -0.4
v 0.3 0.1 0.4
v 0.3 0.1 0.2
v 0.3 0.1 -0.2
v 0.3 0.1 -0.4
v 0.3 0.2 0.4
v 0.3 0.2 0.2
v 0.3 0.2 -0.2
v 0.3 0.2 -0.4
v -0.9 0.3 0.2
v -0.9 0.3 -0.2
v -0.9 0.4 0.3
v -0.9 0.4 0.2
v -0.9 0.4 0.0999999
v -0.9 0.4 -0.1
v -0.9 0.4 -0.2
v -0.9 0.4 -0.3
v -0.9 0.6 0.3
v -0.9 0.6 0.2
v -0.9 0.6 0.0999999
v -0.9 0.6 -0.1
v -0.9 0.6 -0.2
v -0.9 0.6 -0.3
v -0.9 0.7 0.2
v -0.9 0.7 -0.2
v -0.5 0 0.4
v -0.5 0 0.2
v -0.5 0 -0.2
v -0.5 0 -0.4
v -0.5 0.2 0.4
v -0.5 0.2 0.2
v -0.5 0.2 -0.2
v -0.5 0.2 -0.4
v 0.3 0.6 0.5
v 0.3 0.6 0.4
v 0.3 0.6 -0.4
v 0.3 0.6 -0.5
v 0.3 0.7 0.5
v 0.3 0.7 0.4
v 0.3 0.7 -0.4
v 0.3 0.7 -0.5
v 0.4 0.4 0.5
v 0.4 0.4 0.4
v 0.4 0.4 -0.4
v 0.4 0.4 -0.5
v 0.4 0.6 0.5
v 0.4 0.6 0.4
v 0.4 0.6 -0.4
v 0.4 0.6 -0.5
v 0.4 0.7 0.4
v 0.4 0.7 0.3
v 0.4 0.7 -0.3
v 0.4 0.7 -0.4
v 0.4 0.8 0.4
v 0.4 0.8 0.3
v 0.4 0.8 -0.3
v 0.4 0.8 -0.4
v 0.5 0 0.4
v 0.5 0 0.2
v 0.5 0 -0.2
v 0.5 0 -0.4
v 0.5 0.2 0.4
v 0.5 0.2 0.2
v 0.5 0.2 -0.2
v 0.5 0.2 -0.4
v 0.5 0.3 0.6
v 0.5 0.3 0.5
v 0.5 0.3 0.4
v 0.5 0.3 -0.4
v 0.5 0.3 -0.5
v 0.5 0.3 -0.6
v 0.5 0.4 0.6
v 0.5 0.4 0.5
v 0.5 0.4 0.4
v 0.5 0.4 0.2
v 0.5 0.4 -0.2
v 0.5 0.4 -0.4
v 0.5 0.4 -0.5
v 0.5 0.4 -0.6
v 0.5 0.5 0.2
v 0.5 0.5 0.0999999
v 0.5 0.5 -0.1
v 0.5 0.5 -0.2
v 0.5 0.6 0.0999999
v 0.5 0.6 -0.1
v 0.5 0.7 0.4
v 0.5 0.7 0.3
v 0.5 0.7 -0.3
v 0.5 0.7 -0.4
v 0.5 0.8 0.3
v 0.5 0.8 -0.3
v 0.6 0.3 0.5
v 0.6 0.3 -0.5
v 0.6 0.4 0.5
v 0.6 0.4 0.2
v 0.6 0.4 0.0999999
v 0.6 0.4 -0.1
v 0.6 0.4 -0.2
v 0.6 0.4 -0.5
v 0.6 0.5 0.2
v 0.6 0.5 0.0999999
v 0.6 0.5 -0.1
v 0.6 0.5 -0.2
v 0.6 0.6 0.0999999
v 0.6 0.6 -0.1
v 0.9 0.4 0.0999999
v 0.9 0.4 -0.1
v 0.9 0.5 0.0999999
v 0.9 0.5 -0.1
v -0.7 0.3 0.6
v -0.7 0.4 0.6
v 0.5 0.3 0.6
v 0.5 0.4 0.6
v -0.8 0.3 0.5
v -0.8 0.4 0.5
v -0.7 0.3 0.5
v -0.7 0.4 0.5
v -0.6 0.4 0.5
v -0.6 0.6 0.5
v -0.5 0.6 0.5
v -0.5 0.7 0.5
v 0.3 0.6 0.5
v 0.3 0.7 0.5
v 0.4 0.4 0.5
v 0.4 0.6 0.5
v 0.5 0.3 0.5
v 0.5 0.4 0.5
v 0.6 0.3 0.5
v 0.6 0.4 0.5
v -0.8 0 0.4
v -0.8 0.1 0.4
v -0.7 0.1 0.4
v -0.7 0.2 0.4
v -0.7 0.3 0.4
v -0.7 0.4 0.4
v -0.7 0.7 0.4
v -0.6 0.4 0.4
v -0.6 0.6 0.4
v -0.6 0.7 0.4
v -0.6 0.8 0.4
v -0.5 0 0.4
v -0.5 0.2 0.4
v -0.5 0.6 0.4
v -0.5 0.7 0.4
v 0.2 0 0.4
v 0.2 0.1 0.4
v 0.3 0.1 0.4
v 0.3 0.2 0.4
v 0.3 0.6 0.4
v 0.3 0.7 0.4
v 0.4 0.4 0.4
v 0.4 0.6 0.4
v 0.4 0.7 0.4
v 0.4 0.8 0.4
v 0.5 0 0.4
v 0.5 0.2 0.4
v 0.5 0.3 0.4
v 0.5 0.4 0.4
v 0.5 0.7 0.4
v -1.2 0.4 0.3
v -1.2 0.5 0.3
v -1.1 0.4 0.3
v -1.1 0.5 0.3
v -1.1 0.6 0.3
v -0.9 0.4 0.3
v -0.9 0.6 0.3
v -0.7 0.7 0.3
v -0.7 0.8 0.3
v -0.6 0.7 0.3
v -0.6 0.8 0.3
v 0.4 0.7 0.3
v 0.4 0.8 0.3
v 0.5 0.7 0.3
v 0.5 0.8 0.3
v -1.3 0.4 0.2
v -1.3 0.5 0.2
v -1.3 0.6 0.2
v -1.2 0.3 0.2
v -1.2 0.4 0.2
v -1.2 0.5 0.2
v -1.2 0.6 0.2
v -1.2 0.7 0.2
v -1.1 0.4 0.2
v -1.1 0.5 0.2
v -1.1 0.6 0.2
v -0.9 0.3 0.2
v -0.9 0.4 0.2
v -0.9 0.6 0.2
v -0.9 0.7 0.2
v -0.8 0.4 0.2
v -0.8 0.6 0.2
v -0.7 0.4 0.2
v -0.7 0.6 0.2
v 0.5 0.4 0.2
v 0.5 0.5 0.2
v 0.6 0.4 0.2
v 0.6 0.5 0.2
v -1.3 0.3 0.0999999
v -1.3 0.4 0.0999999
v -1.2 0.3 0.0999999
v -1.2 0.4 0.0999999
v -0.9 0.4 0.0999999
v -0.9 0.6 0.0999999
v -0.8 0.4 0.0999999
v -0.8 0.6 0.0999999
v -0.8 0.7 0.0999999
v -0.7 0.6 0.0999999
v -0.7 0.7 0.0999999
v 0.5 0.5 0.0999999
v 0.5 0.6 0.0999999
v 0.6 0.4 0.0999999
v 0.6 0.5 0.0999999
v 0.6 0.6 0.0999999
v 0.9 0.4 0.0999999
v 0.9 0.5 0.0999999
v -1.3 0.5 -0.1
v -1.3 0.6 -0.1
v -1.2 0.5 -0.1
v -1.2 0.6 -0.1
v -0.8 0 -0.2
v -0.8 0.1 -0.2
v -0.7 0.1 -0.2
v -0.7 0.2 -0.2
v -0.5 0 -0.2
v -0.5 0.2 -0.2
v 0.2 0 -0.2
v 0.2 0.1 -0.2
v 0.3 0.1 -0.2
v 0.3 0.2 -0.2
v 0.5 0 -0.2
v 0.5 0.2 -0.2
v -0.8 0 0.2
v -0.8 0.1 0.2
v -0.7 0.1 0.2
v -0.7 0.2 0.2
v -0.5 0 0.2
v -0.5 0.2 0.2
v 0.2 0 0.2
v 0.2 0.1 0.2
v 0.3 0.1 0.2
v 0.3 0.2 0.2
v 0.5 0 0.2
v 0.5 0.2 0.2
v -1.3 0.5 0.0999999
v -1.3 0.6 0.0999999
v -1.2 0.5 0.0999999
v -1.2 0.6 0.0999999
v -1.3 0.3 -0.1
v -1.3 0.4 -0.1
v -1.2 0.3 -0.1
v -1.2 0.4 -0.1
v -0.9 0.4 -0.1
v -0.9 0.6 -0.1
v -0.8 0.4 -0.1
v -0.8 0.6 -0.1
v -0.8 0.7 -0.1
v -0.7 0.6 -0.1
v -0.7 0.7 -0.1
v 0.5 0.5 -0.1
v 0.5 0.6 -0.1
v 0.6 0.4 -0.1
v 0.6 0.5 -0.1
v 0.6 0.6 -0.1
v 0.9 0.4 -0.1
v 0.9 0.5 -0.1
v -1.3 0.4 -0.2
v -1.3 0.5 -0.2
v -1.3 0.6 -0.2
v -1.2 0.3 -0.2
v -1.2 0.4 -0.2
v -1.2 0.5 -0.2
v -1.2 0.6 -0.2
v -1.2 0.7 -0.2
v -1.1 0.4 -0.2
v -1.1 0.5 -0.2
v -1.1 0.6 -0.2
v -0.9 0.3 -0.2
v -0.9 0.4 -0.2
v -0.9 0.6 -0.2
v -0.9 0.7 -0.2
v -0.8 0.4 -0.2
v -0.8 0.6 -0.2
v -0.7 0.4 -0.2
v -0.7 0.6 -0.2
v 0.5 0.4 -0.2
v 0.5 0.5 -0.2
v 0.6 0.4 -0.2
v 0.6 0.5 -0.2
v -1.2 0.4 -0.3
v -1.2 0.5 -0.3
v -1.1 0.4 -0.3
v -1.1 0.5 -0.3
v -1.1 0.6 -0.3
v -0.9 0.4 -0.3
v -0.9 0.6 -0.3
v -0.7 0.7 -0.3
v -0.7 0.8 -0.3
v -0.6 0.7 -0.3
v -0.6 0.8 -0.3
v 0.4 0.7 -0.3
v 0.4 0.8 -0.3
v 0.5 0.7 -0.3
v 0.5 0.8 -0.3
v -0.8 0 -0.4
v -0.8 0.1 -0.4
v -0.7 0.1 -0.4
v -0.7 0.2 -0.4
v -0.7 0.3 -0.4
v -0.7 0.4 -0.4
v -0.7 0.7 -0.4
v -0.6 0.4 -0.4
v -0.6 0.6 -0.4
v -0.6 0.7 -0.4
v -0.6 0.8 -0.4
v -0.5 0 -0.4
v -0.5 0.2 -0.4
v -0.5 0.6 -0.4
v -0.5 0.7 -0.4
v 0.2 0 -0.4
v 0.2 0.1 -0.4
v 0.3 0.1 -0.4
v 0.3 0.2 -0.4
v 0.3 0.6 -0.4
v 0.3 0.7 -0.4
v 0.4 0.4 -0.4
v 0.4 0.6 -0.4
v 0.4 0.7 -0.4
v 0.4 0.8 -0.4
v 0.5 0 -0.4
v 0.5 0.2 -0.4
v 0.5 0.3 -0.4
v 0.5 0.4 -0.4
v 0.5 0.7 -0.4
v -0.8 0.3 -0.5
v -0.8 0.4 -0.5
v -0.7 0.3 -0.5
v -0.7 0.4 -0.5
v -0.6 0.4 -0.5
v -0.6 0.6 -0.5
v -0.5 0.6 -0.5
v -0.5 0.7 -0.5
v 0.3 0.6 -0.5
v 0.3 0.7 -0.5
v 0.4 0.4 -0.5
v 0.4 0.6 -0.5
v 0.5 0.3 -0.5
v 0.5 0.4 -0.5
v 0.6 0.3 -0.5
v 0.6 0.4 -0.5
v -0.7 0.3 -0.6
v -0.7 0.4 -0.6
v 0.5 0.3 -0.6
v 0.5 0.4 -0.6
v -0.8 0 0.4
v -0.5 0 0.4
v 0.2 0 0.4
v 0.5 0 0.4
v -0.8 0 0.2
v -0.5 0 0.2
v 0.2 0 0.2
v 0.5 0 0.2
v -0.8 0 -0.2
v -0.5 0 -0.2
v 0.2 0 -0.2
v 0.5 0 -0.2
v -0.8 0 -0.4
v -0.5 0 -0.4
v 0.2 0 -0.4
v 0.5 0 -0.4
v -0.5 0.2 0.4
v 0.3 0.2 0.4
v -0.7 0.2 0.2
v -0.5 0.2 0.2
v 0.3 0.2 0.2
v 0.5 0.2 0.2
v -0.7 0.2 -0.2
v -0.5 0.2 -0.2
v 0.3 0.2 -0.2
v 0.5 0.2 -0.2
v -0.5 0.2 -0.4
v 0.3 0.2 -0.4
v -0.7 0.3 0.6
v 0.5 0.3 0.6
v -0.8 0.3 0.5
v -0.7 0.3 0.5
v 0.5 0.3 0.5
v 0.6 0.3 0.5
v -0.7 0.3 0.4
v 0.5 0.3 0.4
v -1.2 0.3 0.2
v -0.9 0.3 0.2
v -1.3 0.3 0.0999999
v -1.2 0.3 0.0999999
v -1.3 0.3 -0.1
v -1.2 0.3 -0.1
v -1.2 0.3 -0.2
v -0.9 0.3 -0.2
v -0.7 0.3 -0.4
v 0.5 0.3 -0.4
v -0.8 0.3 -0.5
v -0.7 0.3 -0.5
v 0.5 0.3 -0.5
v 0.6 0.3 -0.5
v -0.7 0.3 -0.6
v 0.5 0.3 -0.6
v -1.2 0.4 0.3
v -1.1 0.4 0.3
v -0.9 0.4 0.3
v -1.3 0.4 0.2
v -1.2 0.4 0.2
v -1.1 0.4 0.2
v -0.9 0.4 0.2
v -1.3 0.4 0.0999999
v -1.2 0.4 0.0999999
v -0.9 0.4 0.0999999
v -0.8 0.4 0.0999999
v 0.6 0.4 0.0999999
v 0.9 0.4 0.0999999
v -1.3 0.4 -0.1
v -1.2 0.4 -0.1
v -0.9 0.4 -0.1
v -0.8 0.4 -0.1
v 0.6 0.4 -0.1
v 0.9 0.4 -0.1
v -1.3 0.4 -0.2
v -1.2 0.4 -0.2
v -1.1 0.4 -0.2
v -0.9 0.4 -0.2
v -1.2 0.4 -0.3
v -1.1 0.4 -0.3
v -0.9 0.4 -0.3
v -0.8 0.1 0.4
v -0.7 0.1 0.4
v 0.2 0.1 0.4
v 0.3 0.1 0.4
v -0.8 0.1 0.2
v -0.7 0.1 0.2
v 0.2 0.1 0.2
v 0.3 0.1 0.2
v -0.8 0.1 -0.2
v -0.7 0.1 -0.2
v 0.2 0.1 -0.2
v 0.3 0.1 -0.2
v -0.8 0.1 -0.4
v -0.7 0.1 -0.4
v 0.2 0.1 -0.4
v 0.3 0.1 -0.4
v -0.7 0.4 0.6
v 0.5 0.4 0.6
v -0.8 0.4 0.5
v -0.7 0.4 0.5
v -0.6 0.4 0.5
v 0.4 0.4 0.5
v 0.5 0.4 0.5
v 0.6 0.4 0.5
v -0.7 0.4 0.4
v -0.6 0.4 0.4
v 0.4 0.4 0.4
v 0.5 0.4 0.4
v -0.8 0.4 0.2
v -0.7 0.4 0.2
v 0.5 0.4 0.2
v 0.6 0.4 0.2
v -0.8 0.4 -0.2
v -0.7 0.4 -0.2
v 0.5 0.4 -0.2
v 0.6 0.4 -0.2
v -0.7 0.4 -0.4
v -0.6 0.4 -0.4
v 0.4 0.4 -0.4
v 0.5 0.4 -0.4
v -0.8 0.4 -0.5
v -0.7 0.4 -0.5
v -0.6 0.4 -0.5
v 0.4 0.4 -0.5
v 0.5 0.4 -0.5
v 0.6 0.4 -0.5
v -0.7 0.4 -0.6
v 0.5 0.4 -0.6
v -1.2 0.5 0.3
v -1.1 0.5 0.3
v -1.2 0.5 0.2
v -1.1 0.5 0.2
v 0.5 0.5 0.2
v 0.6 0.5 0.2
v -1.3 0.5 0.0999999
v -1.2 0.5 0.0999999
v 0.5 0.5 0.0999999
v 0.6 0.5 0.0999999
v 0.9 0.5 0.0999999
v -1.3 0.5 -0.1
v -1.2 0.5 -0.1
v 0.5 0.5 -0.1
v 0.6 0.5 -0.1
v 0.9 0.5 -0.1
v -1.2 0.5 -0.2
v -1.1 0.5 -0.2
v 0.5 0.5 -0.2
v 0.6 0.5 -0.2
v -1.2 0.5 -0.3
v -1.1 0.5 -0.3
v -0.6 0.6 0.5
v -0.5 0.6 0.5
v 0.3 0.6 0.5
v 0.4 0.6 0.5
v -0.6 0.6 0.4
v -0.5 0.6 0.4
v 0.3 0.6 0.4
v 0.4 0.6 0.4
v -1.1 0.6 0.3
v -0.9 0.6 0.3
v -1.3 0.6 0.2
v -1.2 0.6 0.2
v -1.1 0.6 0.2
v -0.9 0.6 0.2
v -0.8 0.6 0.2
v -0.7 0.6 0.2
v -1.3 0.6 0.0999999
v -1.2 0.6 0.0999999
v -0.9 0.6 0.0999999
v -0.8 0.6 0.0999999
v -0.7 0.6 0.0999999
v 0.5 0.6 0.0999999
v 0.6 0.6 0.0999999
v -1.3 0.6 -0.1
v -1.2 0.6 -0.1
v -0.9 0.6 -0.1
v -0.8 0.6 -0.1
v -0.7 0.6 -0.1
v 0.5 0.6 -0.1
v 0.6 0.6 -0.1
v -1.3 0.6 -0.2
v -1.2 0.6 -0.2
v -1.1 0.6 -0.2
v -0.9 0.6 -0.2
v -0.8 0.6 -0.2
v -0.7 0.6 -0.2
v -1.1 0.6 -0.3
v -0.9 0.6 -0.3
v -0.6 0.6 -0.4
v -0.5 0.6 -0.4
v 0.3 0.6 -0.4
v 0.4 0.6 -0.4
v -0.6 0.6 -0.5
v -0.5 0.6 -0.5
v 0.3 0.6 -0.5
v 0.4 0.6 -0.5
v -0.5 0.7 0.5
v 0.3 0.7 0.5
v -0.7 0.7 0.4
v -0.6 0.7 0.4
v -0.5 0.7 0.4
v 0.3 0.7 0.4
v 0.4 0.7 0.4
v 0.5 0.7 0.4
v -0.7 0.7 0.3
v -0.6 0.7 0.3
v 0.4 0.7 0.3
v 0.5 0.7 0.3
v -1.2 0.7 0.2
v -0.9 0.7 0.2
v -0.8 0.7 0.0999999
v -0.7 0.7 0.0999999
v -0.8 0.7 -0.1
v -0.7 0.7 -0.1
v -1.2 0.7 -0.2
v -0.9 0.7 -0.2
v -0.7 0.7 -0.3
v -0.6 0.7 -0.3
v 0.4 0.7 -0.3
v 0.5 0.7 -0.3
v -0.7 0.7 -0.4
v -0.6 0.7 -0.4
v -0.5 0.7 -0.4
v 0.3 0.7 -0.4
v 0.4 0.7 -0.4
v 0.5 0.7 -0.4
v -0.5 0.7 -0.5
v 0.3 0.7 -0.5
v -0.6 0.8 0.4
v 0.4 0.8 0.4
v -0.7 0.8 0.3
v -0.6 0.8 0.3
v 0.4 0.8 0.3
v 0.5 0.8 0.3
v -0.7 0.8 -0.3
v -0.6 0.8 -0.3
v 0.4 0.8 -0.3
v 0.5 0.8 -0.3
v -0.6 0.8 -0.4
v 0.4 0.8 -0.4

# faces
f 4/6/1 2/6/1 1/6/1
f 5/6/1 2/6/1 4/6/1
f 7/5/1 4/5/1 3/5/1
f 7/5/1 6/5/1 5/5/1
f 7/5/1 5/5/1 4/5/1
f 8/5/1 6/5/1 7/5/1
f 9/5/1 6/5/1 8/5/1
f 10/5/1 6/5/1 9/5/1
f 11/7/1 8/7/1 7/7/1
f 12/7/1 8/7/1 11/7/1
f 13/7/1 10/7/1 9/7/1
f 14/7/1 10/7/1 13/7/1
f 20/5/1 16/5/1 15/5/1
f 21/5/1 16/5/1 20/5/1
f 22/5/1 18/5/1 17/5/1
f 23/5/1 18/5/1 22/5/1
f 25/2/1 20/2/1 19/2/1
f 26/2/1 20/2/1 25/2/1
f 29/2/1 24/2/1 23/2/1
f 30/2/1 24/2/1 29/2/1
f 32/5/1 28/5/1 27/5/1
f 33/5/1 28/5/1 32/5/1
f 35/5/1 32/5/1 31/5/1
f 35/5/1 34/5/1 33/5/1
f 35/5/1 33/5/1 32/5/1
f 36/5/1 34/5/1 35/5/1
f 41/5/1 38/5/1 37/5/1
f 42/5/1 38/5/1 41/5/1
f 43/5/1 40/5/1 39/5/1
f 44/5/1 40/5/1 43/5/1
f 49/5/1 46/5/1 45/5/1
f 50/5/1 46/5/1 49/5/1
f 51/5/1 48/5/1 47/5/1
f 52/5/1 48/5/1 51/5/1
f 55/1/1 54/1/1 53/1/1
f 56/1/1 54/1/1 55/1/1
f 57/1/1 54/1/1 56/1/1
f 58/1/1 54/1/1 57/1/1
f 59/1/1 54/1/1 58/1/1
f 60/1/1 54/1/1 59/1/1
f 61/1/1 57/1/1 56/1/1
f 62/1/1 57/1/1 61/1/1
f 63/1/1 59/1/1 58/1/1
f 64/1/1 59/1/1 63/1/1
f 65/1/1 63/1/1 62/1/1
f 66/1/1 63/1/1 65/1/1
f 71/5/1 68/5/1 67/5/1
f 72/5/1 68/5/1 71/5/1
f 73/5/1 70/5/1 69/5/1
f 74/5/1 70/5/1 73/5/1
f 77/1/1 72/1/1 71/1/1
f 77/1/1 73/1/1 72/1/1
f 77/1/1 74/1/1 73/1/1
f 78/1/1 74/1/1 77/1/1
f 81/1/1 76/1/1 75/1/1
f 82/1/1 76/1/1 81/1/1
f 87/1/1 80/1/1 79/1/1
f 88/1/1 80/1/1 87/1/1
f 89/3/1 84/3/1 83/3/1
f 92/3/1 86/3/1 85/3/1
f 93/3/1 90/3/1 89/3/1
f 93/3/1 89/3/1 83/3/1
f 94/3/1 90/3/1 93/3/1
f 95/3/1 90/3/1 94/3/1
f 96/3/1 92/3/1 91/3/1
f 97/3/1 86/3/1 92/3/1
f 97/3/1 92/3/1 96/3/1
f 98/3/1 86/3/1 97/3/1
f 99/3/1 95/3/1 94/3/1
f 99/3/1 96/3/1 95/3/1
f 99/3/1 97/3/1 96/3/1
f 100/3/1 97/3/1 99/3/1
f 105/3/1 102/3/1 101/3/1
f 106/3/1 102/3/1 105/3/1
f 107/3/1 104/3/1 103/3/1
f 108/3/1 104/3/1 107/3/1
f 113/3/1 110/3/1 109/3/1
f 114/3/1 110/3/1 113/3/1
f 115/3/1 112/3/1 111/3/1
f 116/3/1 112/3/1 115/3/1
f 121/3/1 118/3/1 117/3/1
f 122/3/1 118/3/1 121/3/1
f 123/3/1 120/3/1 119/3/1
f 124/3/1 120/3/1 123/3/1
f 129/5/1 126/5/1 125/5/1
f 130/5/1 126/5/1 129/5/1
f 131/5/1 128/5/1 127/5/1
f 132/5/1 128/5/1 131/5/1
f 137/5/1 134/5/1 133/5/1
f 138/5/1 134/5/1 137/5/1
f 139/5/1 136/5/1 135/5/1
f 140/5/1 136/5/1 139/5/1
f 141/5/2 142/5/2 144/5/2
f 144/5/2 142/5/2 145/5/2
f 145/5/2 142/5/2 146/5/2
f 146/5/2 142/5/2 147/5/2
f 143/5/2 144/5/2 149/5/2
f 144/5/2 145/5/2 149/5/2
f 149/5/2 145/5/2 150/5/2
f 150/5/2 145/5/2 151/5/2
f 147/5/2 148/5/2 152/5/2
f 146/5/2 147/5/2 152/5/2
f 152/5/2 148/5/2 153/5/2
f 153/5/2 148/5/2 154/5/2
f 150/5/2 151/5/2 155/5/2
f 152/5/2 153/5/2 155/5/2
f 151/5/2 152/5/2 155/5/2
f 155/5/2 153/5/2 156/5/2
f 157/5/2 158/5/2 161/5/2
f 161/5/2 158/5/2 162/5/2
f 159/5/2 160/5/2 163/5/2
f 163/5/2 160/5/2 164/5/2
f 165/3/2 166/3/2 169/3/2
f 169/3/2 166/3/2 170/3/2
f 167/3/2 168/3/2 171/3/2
f 171/3/2 168/3/2 172/3/2
f 173/3/2 174/3/2 177/3/2
f 177/3/2 174/3/2 178/3/2
f 175/3/2 176/3/2 179/3/2
f 179/3/2 176/3/2 180/3/2
f 181/3/2 182/3/2 185/3/2
f 185/3/2 182/3/2 186/3/2
f 183/3/2 184/3/2 187/3/2
f 187/3/2 184/3/2 188/3/2
f 189/5/2 190/5/2 193/5/2
f 193/5/2 190/5/2 194/5/2
f 191/5/2 192/5/2 195/5/2
f 195/5/2 192/5/2 196/5/2
f 193/1/2 194/1/2 199/1/2
f 194/1/2 195/1/2 199/1/2
f 195/1/2 196/1/2 199/1/2
f 199/1/2 196/1/2 200/1/2
f 197/1/2 198/1/2 203/1/2
f 203/1/2 198/1/2 204/1/2
f 201/1/2 202/1/2 209/1/2
f 209/1/2 202/1/2 210/1/2
f 205/3/2 206/3/2 211/3/2
f 207/3/2 208/3/2 214/3/2
f 211/3/2 212/3/2 215/3/2
f 213/3/2 214/3/2 216/3/2
f 211/3/2 215/3/2 217/3/2
f 215/3/2 216/3/2 217/3/2
f 205/3/2 211/3/2 217/3/2
f 217/3/2 216/3/2 218/3/2
f 216/3/2 214/3/2 219/3/2
f 218/3/2 216/3/2 219/3/2
f 214/3/2 208/3/2 219/3/2
f 219/3/2 208/3/2 220/3/2
f 218/3/2 219/3/2 221/3/2
f 221/3/2 219/3/2 222/3/2
f 223/1/2 224/1/2 225/1/2
f 225/1/2 224/1/2 226/1/2
f 226/1/2 224/1/2 227/1/2
f 227/1/2 224/1/2 228/1/2
f 228/1/2 224/1/2 229/1/2
f 229/1/2 224/1/2 230/1/2
f 226/1/2 227/1/2 231/1/2
f 231/1/2 227/1/2 232/1/2
f 228/1/2 229/1/2 233/1/2
f 233/1/2 229/1/2 234/1/2
f 232/1/2 233/1/2 235/1/2
f 235/1/2 233/1/2 236/1/2
f 237/5/2 238/5/2 239/5/2
f 239/5/2 238/5/2 240/5/2
f 243/1/3 242/1/3 241/1/3
f 244/1/3 242/1/3 243/1/3
f 247/1/3 246/1/3 245/1/3
f 248/1/3 246/1/3 247/1/3
f 251/3/3 250/3/3 249/3/3
f 253/3/3 251/3/3 249/3/3
f 253/3/3 252/3/3 251/3/3
f 254/3/3 252/3/3 253/3/3
f 255/3/3 253/3/3 249/3/3
f 256/3/3 253/3/3 255/3/3
f 259/1/3 258/1/3 257/1/3
f 260/1/3 258/1/3 259/1/3
f 263/5/3 262/5/3 261/5/3
f 268/3/3 267/3/3 266/3/3
f 269/3/3 267/3/3 268/3/3
f 270/3/3 267/3/3 269/3/3
f 272/5/3 263/5/3 261/5/3
f 272/5/3 264/5/3 263/5/3
f 273/1/3 265/1/3 264/1/3
f 273/5/3 264/5/3 272/5/3
f 274/3/3 271/3/3 270/3/3
f 274/3/3 270/3/3 269/3/3
f 275/3/3 271/3/3 274/3/3
f 278/5/3 277/5/3 276/5/3
f 279/1/3 265/1/3 273/1/3
f 281/3/3 271/3/3 275/3/3
f 283/3/3 281/3/3 280/3/3
f 284/3/3 271/3/3 281/3/3
f 284/3/3 281/3/3 283/3/3
f 285/3/3 271/3/3 284/3/3
f 286/5/3 278/5/3 276/5/3
f 286/5/3 279/5/3 278/5/3
f 287/1/3 265/1/3 279/1/3
f 287/5/3 279/5/3 286/5/3
f 288/1/3 265/1/3 287/1/3
f 289/3/3 284/3/3 283/3/3
f 289/3/3 283/3/3 282/3/3
f 290/3/3 284/3/3 289/3/3
f 293/2/3 292/2/3 291/2/3
f 294/2/3 292/2/3 293/2/3
f 296/5/3 294/5/3 293/5/3
f 296/5/3 295/5/3 294/5/3
f 297/5/3 295/5/3 296/5/3
f 300/3/3 299/3/3 298/3/3
f 301/3/3 299/3/3 300/3/3
f 304/3/3 303/3/3 302/3/3
f 305/3/3 303/3/3 304/3/3
f 310/5/3 307/5/3 306/5/3
f 311/7/3 308/7/3 307/7/3
f 311/5/3 307/5/3 310/5/3
f 312/7/3 308/7/3 311/7/3
f 314/5/3 310/5/3 309/5/3
f 315/5/3 313/5/3 312/5/3
f 315/5/3 312/5/3 311/5/3
f 316/5/3 313/5/3 315/5/3
f 317/5/3 314/5/3 309/5/3
f 318/5/3 314/5/3 317/5/3
f 319/5/3 313/5/3 316/5/3
f 320/5/3 313/5/3 319/5/3
f 323/1/3 322/1/3 321/1/3
f 324/1/3 322/1/3 323/1/3
f 327/1/3 326/1/3 325/1/3
f 328/1/3 326/1/3 327/1/3
f 331/6/3 330/6/3 329/6/3
f 332/6/3 330/6/3 331/6/3
f 335/5/3 334/5/3 333/5/3
f 336/5/3 334/5/3 335/5/3
f 338/1/3 337/1/3 336/1/3
f 339/1/3 337/1/3 338/1/3
f 343/1/3 341/1/3 340/1/3
f 344/1/3 341/1/3 343/1/3
f 345/5/3 343/5/3 342/5/3
f 346/5/3 343/5/3 345/5/3
f 349/7/3 348/7/3 347/7/3
f 350/7/3 348/7/3 349/7/3
f 353/5/3 352/5/3 351/5/3
f 355/5/3 353/5/3 351/5/3
f 355/5/3 354/5/3 353/5/3
f 356/5/3 354/5/3 355/5/3
f 359/5/3 358/5/3 357/5/3
f 361/5/3 359/5/3 357/5/3
f 361/5/3 360/5/3 359/5/3
f 362/5/3 360/5/3 361/5/3
f 363/5/4 364/5/4 365/5/4
f 363/5/4 365/5/4 367/5/4
f 365/5/4 366/5/4 367/5/4
f 367/5/4 366/5/4 368/5/4
f 369/5/4 370/5/4 371/5/4
f 369/5/4 371/5/4 373/5/4
f 371/5/4 372/5/4 373/5/4
f 373/5/4 372/5/4 374/5/4
f 375/7/4 376/7/4 377/7/4
f 377/7/4 376/7/4 378/7/4
f 379/6/4 380/6/4 381/6/4
f 381/6/4 380/6/4 382/6/4
f 383/5/4 384/5/4 385/5/4
f 385/5/4 384/5/4 386/5/4
f 386/1/4 387/1/4 388/1/4
f 388/1/4 387/1/4 389/1/4
f 390/1/4 391/1/4 393/1/4
f 393/1/4 391/1/4 394/1/4
f 392/5/4 393/5/4 395/5/4
f 395/5/4 393/5/4 396/5/4
f 397/5/4 398/5/4 401/5/4
f 398/7/4 399/7/4 402/7/4
f 401/5/4 398/5/4 402/5/4
f 402/7/4 399/7/4 403/7/4
f 400/5/4 401/5/4 405/5/4
f 403/5/4 404/5/4 406/5/4
f 402/5/4 403/5/4 406/5/4
f 406/5/4 404/5/4 407/5/4
f 400/5/4 405/5/4 408/5/4
f 408/5/4 405/5/4 409/5/4
f 407/5/4 404/5/4 410/5/4
f 410/5/4 404/5/4 411/5/4
f 412/1/4 413/1/4 414/1/4
f 414/1/4 413/1/4 415/1/4
f 416/1/4 417/1/4 418/1/4
f 418/1/4 417/1/4 419/1/4
f 420/2/4 421/2/4 422/2/4
f 422/2/4 421/2/4 423/2/4
f 422/5/4 423/5/4 425/5/4
f 423/5/4 424/5/4 425/5/4
f 425/5/4 424/5/4 426/5/4
f 427/3/4 428/3/4 429/3/4
f 429/3/4 428/3/4 430/3/4
f 431/3/4 432/3/4 433/3/4
f 433/3/4 432/3/4 434/3/4
f 435/5/4 436/5/4 437/5/4
f 440/3/4 441/3/4 442/3/4
f 442/3/4 441/3/4 443/3/4
f 443/3/4 441/3/4 444/3/4
f 435/5/4 437/5/4 446/5/4
f 437/5/4 438/5/4 446/5/4
f 438/1/4 439/1/4 447/1/4
f 446/5/4 438/5/4 447/5/4
f 444/3/4 445/3/4 448/3/4
f 443/3/4 444/3/4 448/3/4
f 448/3/4 445/3/4 449/3/4
f 450/5/4 451/5/4 452/5/4
f 447/1/4 439/1/4 453/1/4
f 449/3/4 445/3/4 455/3/4
f 454/3/4 455/3/4 457/3/4
f 455/3/4 445/3/4 458/3/4
f 457/3/4 455/3/4 458/3/4
f 458/3/4 445/3/4 459/3/4
f 450/5/4 452/5/4 460/5/4
f 452/5/4 453/5/4 460/5/4
f 453/1/4 439/1/4 461/1/4
f 460/5/4 453/5/4 461/5/4
f 461/1/4 439/1/4 462/1/4
f 457/3/4 458/3/4 463/3/4
f 456/3/4 457/3/4 463/3/4
f 463/3/4 458/3/4 464/3/4
f 465/1/4 466/1/4 467/1/4
f 467/1/4 466/1/4 468/1/4
f 469/3/4 470/3/4 471/3/4
f 469/3/4 471/3/4 473/3/4
f 471/3/4 472/3/4 473/3/4
f 473/3/4 472/3/4 474/3/4
f 469/3/4 473/3/4 475/3/4
f 475/3/4 473/3/4 476/3/4
f 477/1/4 478/1/4 479/1/4
f 479/1/4 478/1/4 480/1/4
f 481/1/4 482/1/4 483/1/4
f 483/1/4 482/1/4 484/1/4
f 489/5/5 486/5/5 485/5/5
f 490/5/5 486/5/5 489/5/5
f 491/5/5 488/5/5 487/5/5
f 492/5/5 488/5/5 491/5/5
f 497/5/5 494/5/5 493/5/5
f 498/5/5 494/5/5 497/5/5
f 499/5/5 496/5/5 495/5/5
f 500/5/5 496/5/5 499/5/5
f 504/1/5 502/1/5 501/1/5
f 505/1/5 502/1/5 504/1/5
f 507/1/5 504/1/5 503/1/5
f 507/1/5 506/1/5 505/1/5
f 507/1/5 505/1/5 504/1/5
f 508/1/5 506/1/5 507/1/5
f 509/1/5 506/1/5 508/1/5
f 510/1/5 506/1/5 509/1/5
f 511/1/5 509/1/5 508/1/5
f 512/1/5 509/1/5 511/1/5
f 516/1/5 514/1/5 513/1/5
f 517/1/5 514/1/5 516/1/5
f 519/1/5 516/1/5 515/1/5
f 519/1/5 518/1/5 517/1/5
f 519/1/5 517/1/5 516/1/5
f 520/1/5 518/1/5 519/1/5
f 524/5/5 522/5/5 521/5/5
f 525/6/5 524/6/5 523/6/5
f 526/5/5 522/5/5 524/5/5
f 526/6/5 524/6/5 525/6/5
f 527/5/5 522/5/5 526/5/5
f 528/5/5 522/5/5 527/5/5
f 529/1/5 519/1/5 515/1/5
f 530/1/5 518/1/5 520/1/5
f 531/1/5 529/1/5 515/1/5
f 531/1/5 530/1/5 529/1/5
f 532/1/5 530/1/5 531/1/5
f 533/1/5 518/1/5 530/1/5
f 533/1/5 530/1/5 532/1/5
f 534/1/5 518/1/5 533/1/5
f 535/1/5 533/1/5 532/1/5
f 536/1/5 533/1/5 535/1/5
f 541/2/5 538/2/5 537/2/5
f 542/5/5 539/5/5 538/5/5
f 542/2/5 538/2/5 541/2/5
f 543/5/5 539/5/5 542/5/5
f 544/5/5 541/5/5 540/5/5
f 545/5/5 541/5/5 544/5/5
f 552/5/5 547/5/5 546/5/5
f 553/5/5 547/5/5 552/5/5
f 554/5/5 549/5/5 548/5/5
f 555/5/5 549/5/5 554/5/5
f 556/5/5 551/5/5 550/5/5
f 557/5/5 551/5/5 556/5/5
f 560/2/5 558/2/5 557/2/5
f 561/5/5 559/5/5 558/5/5
f 561/2/5 558/2/5 560/2/5
f 562/5/5 559/5/5 561/5/5
f 563/5/6 564/5/6 567/5/6
f 567/5/6 564/5/6 568/5/6
f 565/5/6 566/5/6 569/5/6
f 569/5/6 566/5/6 570/5/6
f 571/5/6 572/5/6 575/5/6
f 575/5/6 572/5/6 576/5/6
f 573/5/6 574/5/6 577/5/6
f 577/5/6 574/5/6 578/5/6
f 579/1/6 580/1/6 582/1/6
f 582/1/6 580/1/6 583/1/6
f 583/1/6 580/1/6 584/1/6
f 584/1/6 580/1/6 585/1/6
f 581/1/6 582/1/6 587/1/6
f 582/1/6 583/1/6 587/1/6
f 587/1/6 583/1/6 588/1/6
f 585/1/6 586/1/6 589/1/6
f 584/1/6 585/1/6 589/1/6
f 589/1/6 586/1/6 590/1/6
f 581/1/6 587/1/6 591/1/6
f 591/1/6 587/1/6 592/1/6
f 590/1/6 586/1/6 593/1/6
f 593/1/6 586/1/6 594/1/6
f 595/1/6 596/1/6 599/1/6
f 597/1/6 598/1/6 602/1/6
f 599/1/6 600/1/6 603/1/6
f 595/1/6 599/1/6 603/1/6
f 603/1/6 600/1/6 604/1/6
f 604/1/6 600/1/6 605/1/6
f 601/1/6 602/1/6 606/1/6
f 602/1/6 598/1/6 607/1/6
f 606/1/6 602/1/6 607/1/6
f 607/1/6 598/1/6 608/1/6
f 604/1/6 605/1/6 609/1/6
f 605/1/6 606/1/6 609/1/6
f 606/1/6 607/1/6 609/1/6
f 609/1/6 607/1/6 610/1/6
f 611/2/6 612/2/6 613/2/6
f 613/2/6 612/2/6 614/2/6
f 615/1/6 616/1/6 619/1/6
f 619/1/6 616/1/6 620/1/6
f 617/5/6 618/5/6 622/5/6
f 622/5/6 618/5/6 623/5/6
f 620/5/6 621/5/6 625/5/6
f 625/5/6 621/5/6 626/5/6
f 624/1/6 625/1/6 629/1/6
f 629/1/6 625/1/6 630/1/6
f 627/2/6 628/2/6 631/2/6
f 631/2/6 628/2/6 632/2/6
f 633/3/6 634/3/6 637/3/6
f 637/3/6 634/3/6 638/3/6
f 635/3/6 636/3/6 639/3/6
f 639/3/6 636/3/6 640/3/6
f 641/5/6 642/5/6 645/5/6
f 645/5/6 642/5/6 646/5/6
f 643/7/6 644/7/6 649/7/6
f 649/7/6 644/7/6 650/7/6
f 647/1/6 648/1/6 652/1/6
f 652/1/6 648/1/6 653/1/6
f 651/5/6 652/5/6 658/5/6
f 658/5/6 652/5/6 659/5/6
f 654/1/6 655/1/6 661/1/6
f 661/1/6 655/1/6 662/1/6
f 656/7/6 657/7/6 663/7/6
f 663/7/6 657/7/6 664/7/6
f 659/1/6 660/1/6 667/1/6
f 667/1/6 660/1/6 668/1/6
f 665/5/6 666/5/6 669/5/6
f 669/5/6 666/5/6 670/5/6
f 671/3/6 672/3/6 675/3/6
f 675/3/6 672/3/6 676/3/6
f 673/3/6 674/3/6 677/3/6
f 677/3/6 674/3/6 678/3/6
f 679/3/6 680/3/6 683/3/6
f 683/3/6 680/3/6 684/3/6
f 681/3/6 682/3/6 687/3/6
f 687/3/6 682/3/6 688/3/6
f 685/3/6 686/3/6 689/3/6
f 689/3/6 686/3/6 690/3/6
f 693/1/6 694/1/6 695/1/6
f 695/1/6 694/1/6 696/1/6
f 691/5/6 692/5/6 697/5/6
f 697/5/6 692/5/6 698/5/6
f 699/3/6 700/3/6 703/3/6
f 703/3/6 700/3/6 704/3/6
f 701/3/6 702/3/6 707/3/6
f 707/3/6 702/3/6 708/3/6
f 705/3/6 706/3/6 709/3/6
f 709/3/6 706/3/6 710/3/6
f 711/3/6 712/3/6 714/3/6
f 714/3/6 712/3/6 715/3/6
f 713/3/6 714/3/6 717/3/6
f 715/3/6 716/3/6 717/3/6
f 714/3/6 715/3/6 717/3/6
f 717/3/6 716/3/6 718/3/6
f 718/3/6 716/3/6 719/3/6
f 719/3/6 716/3/6 720/3/6
f 718/3/6 719/3/6 721/3/6
f 721/3/6 719/3/6 722/3/6
