# MagicaVoxel @ Ephtracy

# group
o 

# material
mtllib turtle.mtl
usemtl palette

# normals
vn -1 0 0
vn 1 0 0
vn 0 0 1
vn 0 0 -1
vn 0 -1 0
vn 0 1 0

# texcoords
vt 0.0371094 0.5
vt 0.0800781 0.5
vt 0.537109 0.5
vt 0.701172 0.5
vt 0.720703 0.5
vt 0.845703 0.5
vt 0.958984 0.5
vt 0.994141 0.5

# verts
v -1.4 0.4 0.0999999
v -1.4 0.4 -0.1
v -1.4 0.5 0.0999999
v -1.4 0.5 -0.1
v -1.4 0.6 0.0999999
v -1.4 0.6 -0.1
v -1.3 0.3 0.0999999
v -1.3 0.3 -0.1
v -1.3 0.4 0.3
v -1.3 0.4 0.2
v -1.3 0.4 0.0999999
v -1.3 0.4 -0.1
v -1.3 0.4 -0.2
v -1.3 0.4 -0.3
v -1.3 0.5 0.3
v -1.3 0.5 0.2
v -1.3 0.5 0.0999999
v -1.3 0.5 -0.1
v -1.3 0.5 -0.2
v -1.3 0.5 -0.3
v -1.3 0.6 0.2
v -1.3 0.6 0.0999999
v -1.3 0.6 -0.1
v -1.3 0.6 -0.2
v -1.3 0.7 0.3
v -1.3 0.7 0.0999999
v -1.3 0.7 -0.1
v -1.3 0.7 -0.3
v -0.8 0 0.4
v -0.8 0 0.2
v -0.8 0 -0.2
v -0.8 0 -0.4
v -0.8 0.1 0.4
v -0.8 0.1 0.2
v -0.8 0.1 -0.2
v -0.8 0.1 -0.4
v -0.8 0.3 0.5
v -0.8 0.3 -0.5
v -0.8 0.4 0.5
v -0.8 0.4 0.2
v -0.8 0.4 0.0999999
v -0.8 0.4 -0.1
v -0.8 0.4 -0.2
v -0.8 0.4 -0.5
v -0.8 0.6 0.2
v -0.8 0.6 0.0999999
v -0.8 0.6 -0.1
v -0.8 0.6 -0.2
v -0.8 0.7 0.0999999
v -0.8 0.7 -0.1
v -0.7 0.1 0.4
v -0.7 0.1 0.2
v -0.7 0.1 -0.2
v -0.7 0.1 -0.4
v -0.7 0.2 0.2
v -0.7 0.2 -0.2
v -0.7 0.3 0.6
v -0.7 0.3 0.5
v -0.7 0.3 0.4
v -0.7 0.3 0.2
v -0.7 0.3 -0.2
v -0.7 0.3 -0.4
v -0.7 0.3 -0.5
v -0.7 0.3 -0.6
v -0.7 0.4 0.6
v -0.7 0.4 0.5
v -0.7 0.4 0.4
v -0.7 0.4 0.2
v -0.7 0.4 -0.2
v -0.7 0.4 -0.4
v -0.7 0.4 -0.5
v -0.7 0.4 -0.6
v -0.7 0.6 0.2
v -0.7 0.6 0.0999999
v -0.7 0.6 -0.1
v -0.7 0.6 -0.2
v -0.7 0.7 0.4
v -0.7 0.7 0.3
v -0.7 0.7 0.0999999
v -0.7 0.7 -0.1
v -0.7 0.7 -0.3
v -0.7 0.7 -0.4
v -0.7 0.8 0.3
v -0.7 0.8 -0.3
v -0.6 0.4 0.5
v -0.6 0.4 0.4
v -0.6 0.4 -0.4
v -0.6 0.4 -0.5
v -0.6 0.6 0.5
v -0.6 0.6 0.4
v -0.6 0.6 -0.4
v -0.6 0.6 -0.5
v -0.6 0.7 0.4
v -0.6 0.7 0.3
v -0.6 0.7 -0.3
v -0.6 0.7 -0.4
v -0.6 0.8 0.4
v -0.6 0.8 0.3
v -0.6 0.8 -0.3
v -0.6 0.8 -0.4
v -0.5 0.6 0.5
v -0.5 0.6 0.4
v -0.5 0.6 -0.4
v -0.5 0.6 -0.5
v -0.5 0.7 0.5
v -0.5 0.7 0.4
v -0.5 0.7 -0.4
v -0.5 0.7 -0.5
v 0.2 0 0.4
v 0.2 0 0.2
v 0.2 0 -0.2
v 0.2 0 -0.4
v 0.2 0.1 0.4
v 0.2 0.1 0.2
v 0.2 0.1 -0.2
v 0.2 0.1 -0.4
v 0.3 0.1 0.4
v 0.3 0.1 0.2
v 0.3 0.1 -0.2
v 0.3 0.1 -0.4
v 0.3 0.2 0.4
v 0.3 0.2 0.2
v 0.3 0.2 -0.2
v 0.3 0.2 -0.4
v -1.1 0.6 0.3
v -1.1 0.6 0.2
v -1.1 0.6 -0.2
v -1.1 0.6 -0.3
v -1.1 0.7 0.3
v -1.1 0.7 0.2
v -1.1 0.7 -0.2
v -1.1 0.7 -0.3
v -0.9 0.3 0.0999999
v -0.9 0.3 -0.1
v -0.9 0.4 0.3
v -0.9 0.4 0.0999999
v -0.9 0.4 -0.1
v -0.9 0.4 -0.3
v -0.9 0.6 0.3
v -0.9 0.6 0.2
v -0.9 0.6 0.0999999
v -0.9 0.6 -0.1
v -0.9 0.6 -0.2
v -0.9 0.6 -0.3
v -0.9 0.7 0.2
v -0.9 0.7 -0.2
v -0.5 0 0.4
v -0.5 0 0.2
v -0.5 0 -0.2
v -0.5 0 -0.4
v -0.5 0.2 0.4
v -0.5 0.2 0.2
v -0.5 0.2 -0.2
v -0.5 0.2 -0.4
v 0.3 0.6 0.5
v 0.3 0.6 0.4
v 0.3 0.6 -0.4
v 0.3 0.6 -0.5
v 0.3 0.7 0.5
v 0.3 0.7 0.4
v 0.3 0.7 -0.4
v 0.3 0.7 -0.5
v 0.4 0.4 0.5
v 0.4 0.4 0.4
v 0.4 0.4 -0.4
v 0.4 0.4 -0.5
v 0.4 0.6 0.5
v 0.4 0.6 0.4
v 0.4 0.6 -0.4
v 0.4 0.6 -0.5
v 0.4 0.7 0.4
v 0.4 0.7 0.3
v 0.4 0.7 -0.3
v 0.4 0.7 -0.4
v 0.4 0.8 0.4
v 0.4 0.8 0.3
v 0.4 0.8 -0.3
v 0.4 0.8 -0.4
v 0.5 0 0.4
v 0.5 0 0.2
v 0.5 0 -0.2
v 0.5 0 -0.4
v 0.5 0.2 0.2
v 0.5 0.2 -0.2
v 0.5 0.3 0.6
v 0.5 0.3 0.5
v 0.5 0.3 0.4
v 0.5 0.3 0.2
v 0.5 0.3 -0.2
v 0.5 0.3 -0.4
v 0.5 0.3 -0.5
v 0.5 0.3 -0.6
v 0.5 0.4 0.6
v 0.5 0.4 0.5
v 0.5 0.4 0.4
v 0.5 0.4 0.2
v 0.5 0.4 -0.2
v 0.5 0.4 -0.4
v 0.5 0.4 -0.5
v 0.5 0.4 -0.6
v 0.5 0.5 0.2
v 0.5 0.5 0.0999999
v 0.5 0.5 -0.1
v 0.5 0.5 -0.2
v 0.5 0.6 0.0999999
v 0.5 0.6 -0.1
v 0.5 0.7 0.4
v 0.5 0.7 0.3
v 0.5 0.7 -0.3
v 0.5 0.7 -0.4
v 0.5 0.8 0.3
v 0.5 0.8 -0.3
v 0.6 0.3 0.5
v 0.6 0.3 -0.5
v 0.6 0.4 0.5
v 0.6 0.4 0.2
v 0.6 0.4 0.0999999
v 0.6 0.4 -0.1
v 0.6 0.4 -0.2
v 0.6 0.4 -0.5
v 0.6 0.5 0.2
v 0.6 0.5 0.0999999
v 0.6 0.5 -0.1
v 0.6 0.5 -0.2
v 0.6 0.6 0.0999999
v 0.6 0.6 -0.1
v 0.9 0.4 0.0999999
v 0.9 0.4 -0.1
v 0.9 0.5 0.0999999
v 0.9 0.5 -0.1
v -0.7 0.3 0.6
v -0.7 0.4 0.6
v 0.5 0.3 0.6
v 0.5 0.4 0.6
v -0.8 0.3 0.5
v -0.8 0.4 0.5
v -0.7 0.3 0.5
v -0.7 0.4 0.5
v -0.6 0.4 0.5
v -0.6 0.6 0.5
v -0.5 0.6 0.5
v -0.5 0.7 0.5
v 0.3 0.6 0.5
v 0.3 0.7 0.5
v 0.4 0.4 0.5
v 0.4 0.6 0.5
v 0.5 0.3 0.5
v 0.5 0.4 0.5
v 0.6 0.3 0.5
v 0.6 0.4 0.5
v -0.8 0 0.4
v -0.8 0.1 0.4
v -0.7 0.1 0.4
v -0.7 0.3 0.4
v -0.7 0.4 0.4
v -0.7 0.7 0.4
v -0.6 0.4 0.4
v -0.6 0.6 0.4
v -0.6 0.7 0.4
v -0.6 0.8 0.4
v -0.5 0 0.4
v -0.5 0.2 0.4
v -0.5 0.3 0.4
v -0.5 0.6 0.4
v -0.5 0.7 0.4
v 0.2 0 0.4
v 0.2 0.1 0.4
v 0.3 0.1 0.4
v 0.3 0.2 0.4
v 0.3 0.3 0.4
v 0.3 0.6 0.4
v 0.3 0.7 0.4
v 0.4 0.4 0.4
v 0.4 0.6 0.4
v 0.4 0.7 0.4
v 0.4 0.8 0.4
v 0.5 0 0.4
v 0.5 0.3 0.4
v 0.5 0.4 0.4
v 0.5 0.7 0.4
v -1.3 0.4 0.3
v -1.3 0.5 0.3
v -1.3 0.7 0.3
v -1.2 0.4 0.3
v -1.2 0.5 0.3
v -1.1 0.5 0.3
v -1.1 0.6 0.3
v -1.1 0.7 0.3
v -0.9 0.4 0.3
v -0.9 0.6 0.3
v -0.7 0.7 0.3
v -0.7 0.8 0.3
v -0.6 0.7 0.3
v -0.6 0.8 0.3
v 0.4 0.7 0.3
v 0.4 0.8 0.3
v 0.5 0.7 0.3
v 0.5 0.8 0.3
v -1.1 0.6 0.2
v -1.1 0.7 0.2
v -0.9 0.6 0.2
v -0.9 0.7 0.2
v -0.8 0.4 0.2
v -0.8 0.6 0.2
v -0.7 0.4 0.2
v -0.7 0.6 0.2
v 0.5 0.4 0.2
v 0.5 0.5 0.2
v 0.6 0.4 0.2
v 0.6 0.5 0.2
v -1.4 0.4 0.0999999
v -1.4 0.5 0.0999999
v -1.4 0.6 0.0999999
v -1.3 0.3 0.0999999
v -1.3 0.4 0.0999999
v -1.3 0.5 0.0999999
v -1.3 0.6 0.0999999
v -0.9 0.3 0.0999999
v -0.9 0.4 0.0999999
v -0.9 0.6 0.0999999
v -0.8 0.4 0.0999999
v -0.8 0.6 0.0999999
v -0.8 0.7 0.0999999
v -0.7 0.6 0.0999999
v -0.7 0.7 0.0999999
v 0.5 0.5 0.0999999
v 0.5 0.6 0.0999999
v 0.6 0.4 0.0999999
v 0.6 0.5 0.0999999
v 0.6 0.6 0.0999999
v 0.9 0.4 0.0999999
v 0.9 0.5 0.0999999
v -0.8 0 -0.2
v -0.8 0.1 -0.2
v -0.7 0.1 -0.2
v -0.7 0.2 -0.2
v -0.5 0 -0.2
v -0.5 0.2 -0.2
v 0.2 0 -0.2
v 0.2 0.1 -0.2
v 0.3 0.1 -0.2
v 0.3 0.2 -0.2
v 0.5 0 -0.2
v 0.5 0.2 -0.2
v -0.8 0 0.2
v -0.8 0.1 0.2
v -0.7 0.1 0.2
v -0.7 0.2 0.2
v -0.5 0 0.2
v -0.5 0.2 0.2
v 0.2 0 0.2
v 0.2 0.1 0.2
v 0.3 0.1 0.2
v 0.3 0.2 0.2
v 0.5 0 0.2
v 0.5 0.2 0.2
v -1.4 0.4 -0.1
v -1.4 0.5 -0.1
v -1.4 0.6 -0.1
v -1.3 0.3 -0.1
v -1.3 0.4 -0.1
v -1.3 0.5 -0.1
v -1.3 0.6 -0.1
v -0.9 0.3 -0.1
v -0.9 0.4 -0.1
v -0.9 0.6 -0.1
v -0.8 0.4 -0.1
v -0.8 0.6 -0.1
v -0.8 0.7 -0.1
v -0.7 0.6 -0.1
v -0.7 0.7 -0.1
v 0.5 0.5 -0.1
v 0.5 0.6 -0.1
v 0.6 0.4 -0.1
v 0.6 0.5 -0.1
v 0.6 0.6 -0.1
v 0.9 0.4 -0.1
v 0.9 0.5 -0.1
v -1.1 0.6 -0.2
v -1.1 0.7 -0.2
v -0.9 0.6 -0.2
v -0.9 0.7 -0.2
v -0.8 0.4 -0.2
v -0.8 0.6 -0.2
v -0.7 0.4 -0.2
v -0.7 0.6 -0.2
v 0.5 0.4 -0.2
v 0.5 0.5 -0.2
v 0.6 0.4 -0.2
v 0.6 0.5 -0.2
v -1.3 0.4 -0.3
v -1.3 0.5 -0.3
v -1.3 0.7 -0.3
v -1.2 0.4 -0.3
v -1.2 0.5 -0.3
v -1.1 0.5 -0.3
v -1.1 0.6 -0.3
v -1.1 0.7 -0.3
v -0.9 0.4 -0.3
v -0.9 0.6 -0.3
v -0.7 0.7 -0.3
v -0.7 0.8 -0.3
v -0.6 0.7 -0.3
v -0.6 0.8 -0.3
v 0.4 0.7 -0.3
v 0.4 0.8 -0.3
v 0.5 0.7 -0.3
v 0.5 0.8 -0.3
v -0.8 0 -0.4
v -0.8 0.1 -0.4
v -0.7 0.1 -0.4
v -0.7 0.3 -0.4
v -0.7 0.4 -0.4
v -0.7 0.7 -0.4
v -0.6 0.4 -0.4
v -0.6 0.6 -0.4
v -0.6 0.7 -0.4
v -0.6 0.8 -0.4
v -0.5 0 -0.4
v -0.5 0.2 -0.4
v -0.5 0.3 -0.4
v -0.5 0.6 -0.4
v -0.5 0.7 -0.4
v 0.2 0 -0.4
v 0.2 0.1 -0.4
v 0.3 0.1 -0.4
v 0.3 0.2 -0.4
v 0.3 0.3 -0.4
v 0.3 0.6 -0.4
v 0.3 0.7 -0.4
v 0.4 0.4 -0.4
v 0.4 0.6 -0.4
v 0.4 0.7 -0.4
v 0.4 0.8 -0.4
v 0.5 0 -0.4
v 0.5 0.3 -0.4
v 0.5 0.4 -0.4
v 0.5 0.7 -0.4
v -0.8 0.3 -0.5
v -0.8 0.4 -0.5
v -0.7 0.3 -0.5
v -0.7 0.4 -0.5
v -0.6 0.4 -0.5
v -0.6 0.6 -0.5
v -0.5 0.6 -0.5
v -0.5 0.7 -0.5
v 0.3 0.6 -0.5
v 0.3 0.7 -0.5
v 0.4 0.4 -0.5
v 0.4 0.6 -0.5
v 0.5 0.3 -0.5
v 0.5 0.4 -0.5
v 0.6 0.3 -0.5
v 0.6 0.4 -0.5
v -0.7 0.3 -0.6
v -0.7 0.4 -0.6
v 0.5 0.3 -0.6
v 0.5 0.4 -0.6
v -0.8 0 0.4
v -0.5 0 0.4
v 0.2 0 0.4
v 0.5 0 0.4
v -0.8 0 0.2
v -0.5 0 0.2
v 0.2 0 0.2
v 0.5 0 0.2
v -0.8 0 -0.2
v -0.5 0 -0.2
v 0.2 0 -0.2
v 0.5 0 -0.2
v -0.8 0 -0.4
v -0.5 0 -0.4
v 0.2 0 -0.4
v 0.5 0 -0.4
v -0.5 0.2 0.4
v 0.3 0.2 0.4
v -0.7 0.2 0.2
v -0.5 0.2 0.2
v 0.3 0.2 0.2
v 0.5 0.2 0.2
v -0.7 0.2 -0.2
v -0.5 0.2 -0.2
v 0.3 0.2 -0.2
v 0.5 0.2 -0.2
v -0.5 0.2 -0.4
v 0.3 0.2 -0.4
v -0.7 0.3 0.6
v 0.5 0.3 0.6
v -0.8 0.3 0.5
v -0.7 0.3 0.5
v 0.5 0.3 0.5
v 0.6 0.3 0.5
v -0.7 0.3 0.4
v -0.5 0.3 0.4
v 0.3 0.3 0.4
v 0.5 0.3 0.4
v -0.7 0.3 0.2
v 0.5 0.3 0.2
v -1.3 0.3 0.0999999
v -0.9 0.3 0.0999999
v -1.3 0.3 -0.1
v -0.9 0.3 -0.1
v -0.7 0.3 -0.2
v 0.5 0.3 -0.2
v -0.7 0.3 -0.4
v -0.5 0.3 -0.4
v 0.3 0.3 -0.4
v 0.5 0.3 -0.4
v -0.8 0.3 -0.5
v -0.7 0.3 -0.5
v 0.5 0.3 -0.5
v 0.6 0.3 -0.5
v -0.7 0.3 -0.6
v 0.5 0.3 -0.6
v -1.3 0.4 0.3
v -1.2 0.4 0.3
v -0.9 0.4 0.3
v -1.3 0.4 0.2
v -1.2 0.4 0.2
v -1.4 0.4 0.0999999
v -1.3 0.4 0.0999999
v -0.9 0.4 0.0999999
v -0.8 0.4 0.0999999
v 0.6 0.4 0.0999999
v 0.9 0.4 0.0999999
v -1.4 0.4 -0.1
v -1.3 0.4 -0.1
v -0.9 0.4 -0.1
v -0.8 0.4 -0.1
v 0.6 0.4 -0.1
v 0.9 0.4 -0.1
v -1.3 0.4 -0.2
v -1.2 0.4 -0.2
v -1.3 0.4 -0.3
v -1.2 0.4 -0.3
v -0.9 0.4 -0.3
v -0.8 0.1 0.4
v -0.7 0.1 0.4
v 0.2 0.1 0.4
v 0.3 0.1 0.4
v -0.8 0.1 0.2
v -0.7 0.1 0.2
v 0.2 0.1 0.2
v 0.3 0.1 0.2
v -0.8 0.1 -0.2
v -0.7 0.1 -0.2
v 0.2 0.1 -0.2
v 0.3 0.1 -0.2
v -0.8 0.1 -0.4
v -0.7 0.1 -0.4
v 0.2 0.1 -0.4
v 0.3 0.1 -0.4
v -0.7 0.4 0.6
v 0.5 0.4 0.6
v -0.8 0.4 0.5
v -0.7 0.4 0.5
v -0.6 0.4 0.5
v 0.4 0.4 0.5
v 0.5 0.4 0.5
v 0.6 0.4 0.5
v -0.7 0.4 0.4
v -0.6 0.4 0.4
v 0.4 0.4 0.4
v 0.5 0.4 0.4
v -0.8 0.4 0.2
v -0.7 0.4 0.2
v 0.5 0.4 0.2
v 0.6 0.4 0.2
v -0.8 0.4 -0.2
v -0.7 0.4 -0.2
v 0.5 0.4 -0.2
v 0.6 0.4 -0.2
v -0.7 0.4 -0.4
v -0.6 0.4 -0.4
v 0.4 0.4 -0.4
v 0.5 0.4 -0.4
v -0.8 0.4 -0.5
v -0.7 0.4 -0.5
v -0.6 0.4 -0.5
v 0.4 0.4 -0.5
v 0.5 0.4 -0.5
v 0.6 0.4 -0.5
v -0.7 0.4 -0.6
v 0.5 0.4 -0.6
v 0.5 0.5 0.2
v 0.6 0.5 0.2
v 0.5 0.5 0.0999999
v 0.6 0.5 0.0999999
v 0.9 0.5 0.0999999
v 0.5 0.5 -0.1
v 0.6 0.5 -0.1
v 0.9 0.5 -0.1
v 0.5 0.5 -0.2
v 0.6 0.5 -0.2
v -0.6 0.6 0.5
v -0.5 0.6 0.5
v 0.3 0.6 0.5
v 0.4 0.6 0.5
v -0.6 0.6 0.4
v -0.5 0.6 0.4
v 0.3 0.6 0.4
v 0.4 0.6 0.4
v -1.1 0.6 0.3
v -0.9 0.6 0.3
v -1.1 0.6 0.2
v -0.9 0.6 0.2
v -0.8 0.6 0.2
v -0.7 0.6 0.2
v -1.4 0.6 0.0999999
v -1.3 0.6 0.0999999
v -0.9 0.6 0.0999999
v -0.8 0.6 0.0999999
v -0.7 0.6 0.0999999
v 0.5 0.6 0.0999999
v 0.6 0.6 0.0999999
v -1.4 0.6 -0.1
v -1.3 0.6 -0.1
v -0.9 0.6 -0.1
v -0.8 0.6 -0.1
v -0.7 0.6 -0.1
v 0.5 0.6 -0.1
v 0.6 0.6 -0.1
v -1.1 0.6 -0.2
v -0.9 0.6 -0.2
v -0.8 0.6 -0.2
v -0.7 0.6 -0.2
v -1.1 0.6 -0.3
v -0.9 0.6 -0.3
v -0.6 0.6 -0.4
v -0.5 0.6 -0.4
v 0.3 0.6 -0.4
v 0.4 0.6 -0.4
v -0.6 0.6 -0.5
v -0.5 0.6 -0.5
v 0.3 0.6 -0.5
v 0.4 0.6 -0.5
v -0.5 0.7 0.5
v 0.3 0.7 0.5
v -0.7 0.7 0.4
v -0.6 0.7 0.4
v -0.5 0.7 0.4
v 0.3 0.7 0.4
v 0.4 0.7 0.4
v 0.5 0.7 0.4
v -1.3 0.7 0.3
v -1.1 0.7 0.3
v -0.7 0.7 0.3
v -0.6 0.7 0.3
v 0.4 0.7 0.3
v 0.5 0.7 0.3
v -1.1 0.7 0.2
v -0.9 0.7 0.2
v -1.3 0.7 0.0999999
v -1.1 0.7 0.0999999
v -0.8 0.7 0.0999999
v -0.7 0.7 0.0999999
v -1.3 0.7 -0.1
v -1.1 0.7 -0.1
v -0.8 0.7 -0.1
v -0.7 0.7 -0.1
v -1.1 0.7 -0.2
v -0.9 0.7 -0.2
v -1.3 0.7 -0.3
v -1.1 0.7 -0.3
v -0.7 0.7 -0.3
v -0.6 0.7 -0.3
v 0.4 0.7 -0.3
v 0.5 0.7 -0.3
v -0.7 0.7 -0.4
v -0.6 0.7 -0.4
v -0.5 0.7 -0.4
v 0.3 0.7 -0.4
v 0.4 0.7 -0.4
v 0.5 0.7 -0.4
v -0.5 0.7 -0.5
v 0.3 0.7 -0.5
v -0.6 0.8 0.4
v 0.4 0.8 0.4
v -0.7 0.8 0.3
v -0.6 0.8 0.3
v 0.4 0.8 0.3
v 0.5 0.8 0.3
v -0.7 0.8 -0.3
v -0.6 0.8 -0.3
v 0.4 0.8 -0.3
v 0.5 0.8 -0.3
v -0.6 0.8 -0.4
v 0.4 0.8 -0.4

# faces
f 3/6/1 2/6/1 1/6/1
f 4/6/1 2/6/1 3/6/1
f 5/5/1 4/5/1 3/5/1
f 6/5/1 4/5/1 5/5/1
f 11/5/1 8/5/1 7/5/1
f 12/5/1 8/5/1 11/5/1
f 15/2/1 10/2/1 9/2/1
f 16/5/1 11/5/1 10/5/1
f 16/2/1 10/2/1 15/2/1
f 17/5/1 11/5/1 16/5/1
f 18/5/1 13/5/1 12/5/1
f 19/2/1 14/2/1 13/2/1
f 19/5/1 13/5/1 18/5/1
f 20/2/1 14/2/1 19/2/1
f 21/8/1 17/8/1 16/8/1
f 21/7/1 16/7/1 15/7/1
f 22/8/1 17/8/1 21/8/1
f 23/8/1 19/8/1 18/8/1
f 24/7/1 20/7/1 19/7/1
f 24/8/1 19/8/1 23/8/1
f 25/7/1 22/7/1 21/7/1
f 25/7/1 21/7/1 15/7/1
f 26/5/1 23/5/1 22/5/1
f 26/7/1 22/7/1 25/7/1
f 27/7/1 24/7/1 23/7/1
f 27/5/1 23/5/1 26/5/1
f 28/7/1 20/7/1 24/7/1
f 28/7/1 24/7/1 27/7/1
f 33/5/1 30/5/1 29/5/1
f 34/5/1 30/5/1 33/5/1
f 35/5/1 32/5/1 31/5/1
f 36/5/1 32/5/1 35/5/1
f 39/1/1 38/1/1 37/1/1
f 40/1/1 38/1/1 39/1/1
f 41/1/1 38/1/1 40/1/1
f 42/1/1 38/1/1 41/1/1
f 43/1/1 38/1/1 42/1/1
f 44/1/1 38/1/1 43/1/1
f 45/1/1 41/1/1 40/1/1
f 46/1/1 41/1/1 45/1/1
f 47/1/1 43/1/1 42/1/1
f 48/1/1 43/1/1 47/1/1
f 49/1/1 47/1/1 46/1/1
f 50/1/1 47/1/1 49/1/1
f 55/5/1 52/5/1 51/5/1
f 56/5/1 54/5/1 53/5/1
f 59/5/1 55/5/1 51/5/1
f 60/1/1 56/1/1 55/1/1
f 60/5/1 55/5/1 59/5/1
f 61/5/1 54/5/1 56/5/1
f 61/1/1 56/1/1 60/1/1
f 62/5/1 54/5/1 61/5/1
f 65/1/1 58/1/1 57/1/1
f 66/1/1 58/1/1 65/1/1
f 71/1/1 64/1/1 63/1/1
f 72/1/1 64/1/1 71/1/1
f 73/3/1 68/3/1 67/3/1
f 76/3/1 70/3/1 69/3/1
f 77/3/1 74/3/1 73/3/1
f 77/3/1 73/3/1 67/3/1
f 78/3/1 74/3/1 77/3/1
f 79/3/1 74/3/1 78/3/1
f 80/3/1 76/3/1 75/3/1
f 81/3/1 70/3/1 76/3/1
f 81/3/1 76/3/1 80/3/1
f 82/3/1 70/3/1 81/3/1
f 83/3/1 79/3/1 78/3/1
f 83/3/1 80/3/1 79/3/1
f 83/3/1 81/3/1 80/3/1
f 84/3/1 81/3/1 83/3/1
f 89/3/1 86/3/1 85/3/1
f 90/3/1 86/3/1 89/3/1
f 91/3/1 88/3/1 87/3/1
f 92/3/1 88/3/1 91/3/1
f 97/3/1 94/3/1 93/3/1
f 98/3/1 94/3/1 97/3/1
f 99/3/1 96/3/1 95/3/1
f 100/3/1 96/3/1 99/3/1
f 105/3/1 102/3/1 101/3/1
f 106/3/1 102/3/1 105/3/1
f 107/3/1 104/3/1 103/3/1
f 108/3/1 104/3/1 107/3/1
f 113/5/1 110/5/1 109/5/1
f 114/5/1 110/5/1 113/5/1
f 115/5/1 112/5/1 111/5/1
f 116/5/1 112/5/1 115/5/1
f 121/5/1 118/5/1 117/5/1
f 122/5/1 118/5/1 121/5/1
f 123/5/1 120/5/1 119/5/1
f 124/5/1 120/5/1 123/5/1
f 125/7/2 126/7/2 129/7/2
f 129/7/2 126/7/2 130/7/2
f 127/7/2 128/7/2 131/7/2
f 131/7/2 128/7/2 132/7/2
f 133/5/2 134/5/2 136/5/2
f 136/5/2 134/5/2 137/5/2
f 135/5/2 136/5/2 139/5/2
f 139/5/2 136/5/2 140/5/2
f 140/5/2 136/5/2 141/5/2
f 137/5/2 138/5/2 142/5/2
f 142/5/2 138/5/2 143/5/2
f 143/5/2 138/5/2 144/5/2
f 140/5/2 141/5/2 145/5/2
f 142/5/2 143/5/2 145/5/2
f 141/5/2 142/5/2 145/5/2
f 145/5/2 143/5/2 146/5/2
f 147/5/2 148/5/2 151/5/2
f 151/5/2 148/5/2 152/5/2
f 149/5/2 150/5/2 153/5/2
f 153/5/2 150/5/2 154/5/2
f 155/3/2 156/3/2 159/3/2
f 159/3/2 156/3/2 160/3/2
f 157/3/2 158/3/2 161/3/2
f 161/3/2 158/3/2 162/3/2
f 163/3/2 164/3/2 167/3/2
f 167/3/2 164/3/2 168/3/2
f 165/3/2 166/3/2 169/3/2
f 169/3/2 166/3/2 170/3/2
f 171/3/2 172/3/2 175/3/2
f 175/3/2 172/3/2 176/3/2
f 173/3/2 174/3/2 177/3/2
f 177/3/2 174/3/2 178/3/2
f 179/5/2 180/5/2 183/5/2
f 181/5/2 182/5/2 184/5/2
f 179/5/2 183/5/2 187/5/2
f 183/1/2 184/1/2 188/1/2
f 187/5/2 183/5/2 188/5/2
f 184/5/2 182/5/2 189/5/2
f 188/1/2 184/1/2 189/1/2
f 189/5/2 182/5/2 190/5/2
f 185/1/2 186/1/2 193/1/2
f 193/1/2 186/1/2 194/1/2
f 191/1/2 192/1/2 199/1/2
f 199/1/2 192/1/2 200/1/2
f 195/3/2 196/3/2 201/3/2
f 197/3/2 198/3/2 204/3/2
f 201/3/2 202/3/2 205/3/2
f 203/3/2 204/3/2 206/3/2
f 201/3/2 205/3/2 207/3/2
f 205/3/2 206/3/2 207/3/2
f 195/3/2 201/3/2 207/3/2
f 207/3/2 206/3/2 208/3/2
f 206/3/2 204/3/2 209/3/2
f 208/3/2 206/3/2 209/3/2
f 204/3/2 198/3/2 209/3/2
f 209/3/2 198/3/2 210/3/2
f 208/3/2 209/3/2 211/3/2
f 211/3/2 209/3/2 212/3/2
f 213/1/2 214/1/2 215/1/2
f 215/1/2 214/1/2 216/1/2
f 216/1/2 214/1/2 217/1/2
f 217/1/2 214/1/2 218/1/2
f 218/1/2 214/1/2 219/1/2
f 219/1/2 214/1/2 220/1/2
f 216/1/2 217/1/2 221/1/2
f 221/1/2 217/1/2 222/1/2
f 218/1/2 219/1/2 223/1/2
f 223/1/2 219/1/2 224/1/2
f 222/1/2 223/1/2 225/1/2
f 225/1/2 223/1/2 226/1/2
f 227/5/2 228/5/2 229/5/2
f 229/5/2 228/5/2 230/5/2
f 233/1/3 232/1/3 231/1/3
f 234/1/3 232/1/3 233/1/3
f 237/1/3 236/1/3 235/1/3
f 238/1/3 236/1/3 237/1/3
f 241/3/3 240/3/3 239/3/3
f 243/3/3 241/3/3 239/3/3
f 243/3/3 242/3/3 241/3/3
f 244/3/3 242/3/3 243/3/3
f 245/3/3 243/3/3 239/3/3
f 246/3/3 243/3/3 245/3/3
f 249/1/3 248/1/3 247/1/3
f 250/1/3 248/1/3 249/1/3
f 253/5/3 252/5/3 251/5/3
f 257/3/3 256/3/3 255/3/3
f 258/3/3 256/3/3 257/3/3
f 259/3/3 256/3/3 258/3/3
f 261/5/3 253/5/3 251/5/3
f 261/5/3 254/5/3 253/5/3
f 262/5/3 254/5/3 261/5/3
f 263/5/3 254/5/3 262/5/3
f 264/3/3 260/3/3 259/3/3
f 264/3/3 259/3/3 258/3/3
f 265/3/3 260/3/3 264/3/3
f 268/5/3 267/5/3 266/5/3
f 269/1/3 263/1/3 262/1/3
f 270/1/3 263/1/3 269/1/3
f 272/3/3 260/3/3 265/3/3
f 274/3/3 272/3/3 271/3/3
f 275/3/3 260/3/3 272/3/3
f 275/3/3 272/3/3 274/3/3
f 276/3/3 260/3/3 275/3/3
f 277/5/3 268/5/3 266/5/3
f 277/5/3 270/5/3 269/5/3
f 277/5/3 269/5/3 268/5/3
f 278/5/3 270/5/3 277/5/3
f 279/3/3 275/3/3 274/3/3
f 279/3/3 274/3/3 273/3/3
f 280/3/3 275/3/3 279/3/3
f 284/2/3 282/2/3 281/2/3
f 285/7/3 283/7/3 282/7/3
f 285/2/3 282/2/3 284/2/3
f 286/5/3 285/5/3 284/5/3
f 286/7/3 283/7/3 285/7/3
f 287/7/3 283/7/3 286/7/3
f 288/7/3 283/7/3 287/7/3
f 289/5/3 286/5/3 284/5/3
f 289/5/3 287/5/3 286/5/3
f 290/5/3 287/5/3 289/5/3
f 293/3/3 292/3/3 291/3/3
f 294/3/3 292/3/3 293/3/3
f 297/3/3 296/3/3 295/3/3
f 298/3/3 296/3/3 297/3/3
f 301/5/3 300/5/3 299/5/3
f 302/5/3 300/5/3 301/5/3
f 305/1/3 304/1/3 303/1/3
f 306/1/3 304/1/3 305/1/3
f 309/1/3 308/1/3 307/1/3
f 310/1/3 308/1/3 309/1/3
f 315/6/3 312/6/3 311/6/3
f 316/5/3 313/5/3 312/5/3
f 316/6/3 312/6/3 315/6/3
f 317/5/3 313/5/3 316/5/3
f 318/5/3 315/5/3 314/5/3
f 319/5/3 315/5/3 318/5/3
f 321/5/3 320/5/3 319/5/3
f 322/5/3 320/5/3 321/5/3
f 324/1/3 323/1/3 322/1/3
f 325/1/3 323/1/3 324/1/3
f 329/1/3 327/1/3 326/1/3
f 330/1/3 327/1/3 329/1/3
f 331/5/3 329/5/3 328/5/3
f 332/5/3 329/5/3 331/5/3
f 335/5/3 334/5/3 333/5/3
f 337/5/3 335/5/3 333/5/3
f 337/5/3 336/5/3 335/5/3
f 338/5/3 336/5/3 337/5/3
f 341/5/3 340/5/3 339/5/3
f 343/5/3 341/5/3 339/5/3
f 343/5/3 342/5/3 341/5/3
f 344/5/3 342/5/3 343/5/3
f 345/5/4 346/5/4 347/5/4
f 345/5/4 347/5/4 349/5/4
f 347/5/4 348/5/4 349/5/4
f 349/5/4 348/5/4 350/5/4
f 351/5/4 352/5/4 353/5/4
f 351/5/4 353/5/4 355/5/4
f 353/5/4 354/5/4 355/5/4
f 355/5/4 354/5/4 356/5/4
f 357/6/4 358/6/4 361/6/4
f 358/5/4 359/5/4 362/5/4
f 361/6/4 358/6/4 362/6/4
f 362/5/4 359/5/4 363/5/4
f 360/5/4 361/5/4 364/5/4
f 364/5/4 361/5/4 365/5/4
f 365/5/4 366/5/4 367/5/4
f 367/5/4 366/5/4 368/5/4
f 368/1/4 369/1/4 370/1/4
f 370/1/4 369/1/4 371/1/4
f 372/1/4 373/1/4 375/1/4
f 375/1/4 373/1/4 376/1/4
f 374/5/4 375/5/4 377/5/4
f 377/5/4 375/5/4 378/5/4
f 379/5/4 380/5/4 381/5/4
f 381/5/4 380/5/4 382/5/4
f 383/1/4 384/1/4 385/1/4
f 385/1/4 384/1/4 386/1/4
f 387/1/4 388/1/4 389/1/4
f 389/1/4 388/1/4 390/1/4
f 391/2/4 392/2/4 394/2/4
f 392/7/4 393/7/4 395/7/4
f 394/2/4 392/2/4 395/2/4
f 394/5/4 395/5/4 396/5/4
f 395/7/4 393/7/4 396/7/4
f 396/7/4 393/7/4 397/7/4
f 397/7/4 393/7/4 398/7/4
f 394/5/4 396/5/4 399/5/4
f 396/5/4 397/5/4 399/5/4
f 399/5/4 397/5/4 400/5/4
f 401/3/4 402/3/4 403/3/4
f 403/3/4 402/3/4 404/3/4
f 405/3/4 406/3/4 407/3/4
f 407/3/4 406/3/4 408/3/4
f 409/5/4 410/5/4 411/5/4
f 413/3/4 414/3/4 415/3/4
f 415/3/4 414/3/4 416/3/4
f 416/3/4 414/3/4 417/3/4
f 409/5/4 411/5/4 419/5/4
f 411/5/4 412/5/4 419/5/4
f 419/5/4 412/5/4 420/5/4
f 420/5/4 412/5/4 421/5/4
f 417/3/4 418/3/4 422/3/4
f 416/3/4 417/3/4 422/3/4
f 422/3/4 418/3/4 423/3/4
f 424/5/4 425/5/4 426/5/4
f 420/1/4 421/1/4 427/1/4
f 427/1/4 421/1/4 428/1/4
f 423/3/4 418/3/4 430/3/4
f 429/3/4 430/3/4 432/3/4
f 430/3/4 418/3/4 433/3/4
f 432/3/4 430/3/4 433/3/4
f 433/3/4 418/3/4 434/3/4
f 424/5/4 426/5/4 435/5/4
f 427/5/4 428/5/4 435/5/4
f 426/5/4 427/5/4 435/5/4
f 435/5/4 428/5/4 436/5/4
f 432/3/4 433/3/4 437/3/4
f 431/3/4 432/3/4 437/3/4
f 437/3/4 433/3/4 438/3/4
f 439/1/4 440/1/4 441/1/4
f 441/1/4 440/1/4 442/1/4
f 443/3/4 444/3/4 445/3/4
f 443/3/4 445/3/4 447/3/4
f 445/3/4 446/3/4 447/3/4
f 447/3/4 446/3/4 448/3/4
f 443/3/4 447/3/4 449/3/4
f 449/3/4 447/3/4 450/3/4
f 451/1/4 452/1/4 453/1/4
f 453/1/4 452/1/4 454/1/4
f 455/1/4 456/1/4 457/1/4
f 457/1/4 456/1/4 458/1/4
f 463/5/5 460/5/5 459/5/5
f 464/5/5 460/5/5 463/5/5
f 465/5/5 462/5/5 461/5/5
f 466/5/5 462/5/5 465/5/5
f 471/5/5 468/5/5 467/5/5
f 472/5/5 468/5/5 471/5/5
f 473/5/5 470/5/5 469/5/5
f 474/5/5 470/5/5 473/5/5
f 478/1/5 476/1/5 475/1/5
f 479/1/5 476/1/5 478/1/5
f 481/1/5 478/1/5 477/1/5
f 481/1/5 480/1/5 479/1/5
f 481/1/5 479/1/5 478/1/5
f 482/1/5 480/1/5 481/1/5
f 483/1/5 480/1/5 482/1/5
f 484/1/5 480/1/5 483/1/5
f 485/1/5 483/1/5 482/1/5
f 486/1/5 483/1/5 485/1/5
f 490/1/5 488/1/5 487/1/5
f 491/1/5 488/1/5 490/1/5
f 493/1/5 490/1/5 489/1/5
f 493/1/5 492/1/5 491/1/5
f 493/1/5 491/1/5 490/1/5
f 494/1/5 492/1/5 493/1/5
f 495/1/5 492/1/5 494/1/5
f 496/1/5 492/1/5 495/1/5
f 497/1/5 493/1/5 489/1/5
f 498/1/5 492/1/5 496/1/5
f 501/5/5 500/5/5 499/5/5
f 502/5/5 500/5/5 501/5/5
f 503/1/5 497/1/5 489/1/5
f 504/1/5 492/1/5 498/1/5
f 505/1/5 503/1/5 489/1/5
f 508/1/5 492/1/5 504/1/5
f 509/1/5 507/1/5 506/1/5
f 509/1/5 508/1/5 507/1/5
f 509/1/5 505/1/5 489/1/5
f 509/1/5 506/1/5 505/1/5
f 510/1/5 508/1/5 509/1/5
f 511/1/5 492/1/5 508/1/5
f 511/1/5 508/1/5 510/1/5
f 512/1/5 492/1/5 511/1/5
f 513/1/5 511/1/5 510/1/5
f 514/1/5 511/1/5 513/1/5
f 518/2/5 516/2/5 515/2/5
f 519/5/5 517/5/5 516/5/5
f 519/2/5 516/2/5 518/2/5
f 521/5/5 519/5/5 518/5/5
f 522/5/5 517/5/5 519/5/5
f 522/5/5 519/5/5 521/5/5
f 526/6/5 521/6/5 520/6/5
f 527/6/5 521/6/5 526/6/5
f 528/5/5 523/5/5 522/5/5
f 529/5/5 523/5/5 528/5/5
f 530/5/5 525/5/5 524/5/5
f 531/5/5 525/5/5 530/5/5
f 532/5/5 528/5/5 527/5/5
f 533/5/5 528/5/5 532/5/5
f 534/2/5 533/2/5 532/2/5
f 535/5/5 528/5/5 533/5/5
f 535/2/5 533/2/5 534/2/5
f 536/5/5 528/5/5 535/5/5
f 537/5/6 538/5/6 541/5/6
f 541/5/6 538/5/6 542/5/6
f 539/5/6 540/5/6 543/5/6
f 543/5/6 540/5/6 544/5/6
f 545/5/6 546/5/6 549/5/6
f 549/5/6 546/5/6 550/5/6
f 547/5/6 548/5/6 551/5/6
f 551/5/6 548/5/6 552/5/6
f 553/1/6 554/1/6 556/1/6
f 556/1/6 554/1/6 557/1/6
f 557/1/6 554/1/6 558/1/6
f 558/1/6 554/1/6 559/1/6
f 555/1/6 556/1/6 561/1/6
f 556/1/6 557/1/6 561/1/6
f 561/1/6 557/1/6 562/1/6
f 559/1/6 560/1/6 563/1/6
f 558/1/6 559/1/6 563/1/6
f 563/1/6 560/1/6 564/1/6
f 555/1/6 561/1/6 565/1/6
f 565/1/6 561/1/6 566/1/6
f 564/1/6 560/1/6 567/1/6
f 567/1/6 560/1/6 568/1/6
f 569/1/6 570/1/6 573/1/6
f 571/1/6 572/1/6 576/1/6
f 573/1/6 574/1/6 577/1/6
f 569/1/6 573/1/6 577/1/6
f 577/1/6 574/1/6 578/1/6
f 578/1/6 574/1/6 579/1/6
f 575/1/6 576/1/6 580/1/6
f 576/1/6 572/1/6 581/1/6
f 580/1/6 576/1/6 581/1/6
f 581/1/6 572/1/6 582/1/6
f 578/1/6 579/1/6 583/1/6
f 579/1/6 580/1/6 583/1/6
f 580/1/6 581/1/6 583/1/6
f 583/1/6 581/1/6 584/1/6
f 585/1/6 586/1/6 587/1/6
f 587/1/6 586/1/6 588/1/6
f 588/5/6 589/5/6 591/5/6
f 591/5/6 589/5/6 592/5/6
f 590/1/6 591/1/6 593/1/6
f 593/1/6 591/1/6 594/1/6
f 595/3/6 596/3/6 599/3/6
f 599/3/6 596/3/6 600/3/6
f 597/3/6 598/3/6 601/3/6
f 601/3/6 598/3/6 602/3/6
f 603/5/6 604/5/6 605/5/6
f 605/5/6 604/5/6 606/5/6
f 607/1/6 608/1/6 612/1/6
f 612/1/6 608/1/6 613/1/6
f 609/5/6 610/5/6 616/5/6
f 616/5/6 610/5/6 617/5/6
f 611/5/6 612/5/6 618/5/6
f 618/5/6 612/5/6 619/5/6
f 614/1/6 615/1/6 621/1/6
f 621/1/6 615/1/6 622/1/6
f 619/1/6 620/1/6 625/1/6
f 625/1/6 620/1/6 626/1/6
f 623/5/6 624/5/6 627/5/6
f 627/5/6 624/5/6 628/5/6
f 629/3/6 630/3/6 633/3/6
f 633/3/6 630/3/6 634/3/6
f 631/3/6 632/3/6 635/3/6
f 635/3/6 632/3/6 636/3/6
f 637/3/6 638/3/6 641/3/6
f 641/3/6 638/3/6 642/3/6
f 639/3/6 640/3/6 647/3/6
f 647/3/6 640/3/6 648/3/6
f 643/3/6 644/3/6 649/3/6
f 649/3/6 644/3/6 650/3/6
f 645/7/6 646/7/6 651/7/6
f 645/7/6 651/7/6 653/7/6
f 651/5/6 652/5/6 654/5/6
f 653/7/6 651/7/6 654/7/6
f 653/5/6 654/5/6 657/5/6
f 654/5/6 652/5/6 658/5/6
f 657/5/6 654/5/6 658/5/6
f 655/1/6 656/1/6 659/1/6
f 659/1/6 656/1/6 660/1/6
f 658/5/6 652/5/6 661/5/6
f 657/7/6 658/7/6 661/7/6
f 661/5/6 652/5/6 662/5/6
f 657/7/6 661/7/6 663/7/6
f 663/7/6 661/7/6 664/7/6
f 665/3/6 666/3/6 669/3/6
f 669/3/6 666/3/6 670/3/6
f 667/3/6 668/3/6 673/3/6
f 673/3/6 668/3/6 674/3/6
f 671/3/6 672/3/6 675/3/6
f 675/3/6 672/3/6 676/3/6
f 677/3/6 678/3/6 680/3/6
f 680/3/6 678/3/6 681/3/6
f 679/3/6 680/3/6 683/3/6
f 681/3/6 682/3/6 683/3/6
f 680/3/6 681/3/6 683/3/6
f 683/3/6 682/3/6 684/3/6
f 684/3/6 682/3/6 685/3/6
f 685/3/6 682/3/6 686/3/6
f 684/3/6 685/3/6 687/3/6
f 687/3/6 685/3/6 688/3/6
