# MagicaVoxel @ Ephtracy

# group
o 

# material
mtllib turtle_shell.mtl
usemtl palette

# normals
vn -1 0 0
vn 1 0 0
vn 0 0 1
vn 0 0 -1
vn 0 -1 0
vn 0 1 0

# texcoords
vt 0.0371094 0.5
vt 0.537109 0.5
vt 0.701172 0.5
vt 0.994141 0.5

# verts
v -0.8 0.3 0.5
v -0.8 0.3 -0.5
v -0.8 0.4 0.5
v -0.8 0.4 0.2
v -0.8 0.4 0.0999999
v -0.8 0.4 -0.1
v -0.8 0.4 -0.2
v -0.8 0.4 -0.5
v -0.8 0.6 0.2
v -0.8 0.6 0.0999999
v -0.8 0.6 -0.1
v -0.8 0.6 -0.2
v -0.8 0.7 0.0999999
v -0.8 0.7 -0.1
v -0.7 0.2 0.2
v -0.7 0.2 -0.2
v -0.7 0.3 0.6
v -0.7 0.3 0.5
v -0.7 0.3 0.2
v -0.7 0.3 -0.2
v -0.7 0.3 -0.5
v -0.7 0.3 -0.6
v -0.7 0.4 0.6
v -0.7 0.4 0.5
v -0.7 0.4 0.4
v -0.7 0.4 0.2
v -0.7 0.4 0.0999999
v -0.7 0.4 -0.1
v -0.7 0.4 -0.2
v -0.7 0.4 -0.4
v -0.7 0.4 -0.5
v -0.7 0.4 -0.6
v -0.7 0.6 0.2
v -0.7 0.6 0.0999999
v -0.7 0.6 -0.1
v -0.7 0.6 -0.2
v -0.7 0.7 0.4
v -0.7 0.7 0.3
v -0.7 0.7 0.0999999
v -0.7 0.7 -0.1
v -0.7 0.7 -0.3
v -0.7 0.7 -0.4
v -0.7 0.8 0.3
v -0.7 0.8 -0.3
v -0.6 0.4 0.5
v -0.6 0.4 0.4
v -0.6 0.4 -0.4
v -0.6 0.4 -0.5
v -0.6 0.6 0.5
v -0.6 0.6 0.4
v -0.6 0.6 -0.4
v -0.6 0.6 -0.5
v -0.6 0.7 0.4
v -0.6 0.7 0.3
v -0.6 0.7 -0.3
v -0.6 0.7 -0.4
v -0.6 0.8 0.4
v -0.6 0.8 0.3
v -0.6 0.8 -0.3
v -0.6 0.8 -0.4
v -0.5 0.2 0.4
v -0.5 0.2 0.2
v -0.5 0.2 -0.2
v -0.5 0.2 -0.4
v -0.5 0.3 0.4
v -0.5 0.3 0.2
v -0.5 0.3 -0.2
v -0.5 0.3 -0.4
v -0.5 0.6 0.5
v -0.5 0.6 0.4
v -0.5 0.6 -0.4
v -0.5 0.6 -0.5
v -0.5 0.7 0.5
v -0.5 0.7 0.4
v -0.5 0.7 -0.4
v -0.5 0.7 -0.5
v 0.3 0.2 0.4
v 0.3 0.2 0.2
v 0.3 0.2 -0.2
v 0.3 0.2 -0.4
v 0.3 0.3 0.4
v 0.3 0.3 0.2
v 0.3 0.3 -0.2
v 0.3 0.3 -0.4
v 0.3 0.6 0.5
v 0.3 0.6 0.4
v 0.3 0.6 -0.4
v 0.3 0.6 -0.5
v 0.3 0.7 0.5
v 0.3 0.7 0.4
v 0.3 0.7 -0.4
v 0.3 0.7 -0.5
v 0.4 0.4 0.5
v 0.4 0.4 0.4
v 0.4 0.4 -0.4
v 0.4 0.4 -0.5
v 0.4 0.6 0.5
v 0.4 0.6 0.4
v 0.4 0.6 -0.4
v 0.4 0.6 -0.5
v 0.4 0.7 0.4
v 0.4 0.7 0.3
v 0.4 0.7 -0.3
v 0.4 0.7 -0.4
v 0.4 0.8 0.4
v 0.4 0.8 0.3
v 0.4 0.8 -0.3
v 0.4 0.8 -0.4
v 0.5 0.2 0.2
v 0.5 0.2 -0.2
v 0.5 0.3 0.6
v 0.5 0.3 0.5
v 0.5 0.3 0.2
v 0.5 0.3 -0.2
v 0.5 0.3 -0.5
v 0.5 0.3 -0.6
v 0.5 0.4 0.6
v 0.5 0.4 0.5
v 0.5 0.4 0.4
v 0.5 0.4 0.2
v 0.5 0.4 0.0999999
v 0.5 0.4 -0.1
v 0.5 0.4 -0.2
v 0.5 0.4 -0.4
v 0.5 0.4 -0.5
v 0.5 0.4 -0.6
v 0.5 0.5 0.2
v 0.5 0.5 0.0999999
v 0.5 0.5 -0.1
v 0.5 0.5 -0.2
v 0.5 0.6 0.0999999
v 0.5 0.6 -0.1
v 0.5 0.7 0.4
v 0.5 0.7 0.3
v 0.5 0.7 -0.3
v 0.5 0.7 -0.4
v 0.5 0.8 0.3
v 0.5 0.8 -0.3
v 0.6 0.3 0.5
v 0.6 0.3 -0.5
v 0.6 0.4 0.5
v 0.6 0.4 0.2
v 0.6 0.4 0.0999999
v 0.6 0.4 -0.1
v 0.6 0.4 -0.2
v 0.6 0.4 -0.5
v 0.6 0.5 0.2
v 0.6 0.5 0.0999999
v 0.6 0.5 -0.1
v 0.6 0.5 -0.2
v 0.6 0.6 0.0999999
v 0.6 0.6 -0.1
v -0.7 0.3 0.6
v -0.7 0.4 0.6
v 0.5 0.3 0.6
v 0.5 0.4 0.6
v -0.8 0.3 0.5
v -0.8 0.4 0.5
v -0.7 0.3 0.5
v -0.7 0.4 0.5
v -0.6 0.4 0.5
v -0.6 0.6 0.5
v -0.5 0.6 0.5
v -0.5 0.7 0.5
v 0.3 0.6 0.5
v 0.3 0.7 0.5
v 0.4 0.4 0.5
v 0.4 0.6 0.5
v 0.5 0.3 0.5
v 0.5 0.4 0.5
v 0.6 0.3 0.5
v 0.6 0.4 0.5
v -0.7 0.4 0.4
v -0.7 0.7 0.4
v -0.6 0.4 0.4
v -0.6 0.6 0.4
v -0.6 0.7 0.4
v -0.6 0.8 0.4
v -0.5 0.2 0.4
v -0.5 0.3 0.4
v -0.5 0.6 0.4
v -0.5 0.7 0.4
v 0.3 0.2 0.4
v 0.3 0.3 0.4
v 0.3 0.6 0.4
v 0.3 0.7 0.4
v 0.4 0.4 0.4
v 0.4 0.6 0.4
v 0.4 0.7 0.4
v 0.4 0.8 0.4
v 0.5 0.4 0.4
v 0.5 0.7 0.4
v -0.7 0.7 0.3
v -0.7 0.8 0.3
v -0.6 0.7 0.3
v -0.6 0.8 0.3
v 0.4 0.7 0.3
v 0.4 0.8 0.3
v 0.5 0.7 0.3
v 0.5 0.8 0.3
v -0.8 0.4 0.2
v -0.8 0.6 0.2
v -0.7 0.2 0.2
v -0.7 0.3 0.2
v -0.7 0.4 0.2
v -0.7 0.6 0.2
v -0.5 0.2 0.2
v -0.5 0.3 0.2
v 0.3 0.2 0.2
v 0.3 0.3 0.2
v 0.5 0.2 0.2
v 0.5 0.3 0.2
v 0.5 0.4 0.2
v 0.5 0.5 0.2
v 0.6 0.4 0.2
v 0.6 0.5 0.2
v -0.8 0.6 0.0999999
v -0.8 0.7 0.0999999
v -0.7 0.6 0.0999999
v -0.7 0.7 0.0999999
v 0.5 0.5 0.0999999
v 0.5 0.6 0.0999999
v 0.6 0.5 0.0999999
v 0.6 0.6 0.0999999
v -0.8 0.4 -0.1
v -0.8 0.6 -0.1
v -0.7 0.4 -0.1
v -0.7 0.6 -0.1
v 0.5 0.4 -0.1
v 0.5 0.5 -0.1
v 0.6 0.4 -0.1
v 0.6 0.5 -0.1
v -0.8 0.4 0.0999999
v -0.8 0.6 0.0999999
v -0.7 0.4 0.0999999
v -0.7 0.6 0.0999999
v 0.5 0.4 0.0999999
v 0.5 0.5 0.0999999
v 0.6 0.4 0.0999999
v 0.6 0.5 0.0999999
v -0.8 0.6 -0.1
v -0.8 0.7 -0.1
v -0.7 0.6 -0.1
v -0.7 0.7 -0.1
v 0.5 0.5 -0.1
v 0.5 0.6 -0.1
v 0.6 0.5 -0.1
v 0.6 0.6 -0.1
v -0.8 0.4 -0.2
v -0.8 0.6 -0.2
v -0.7 0.2 -0.2
v -0.7 0.3 -0.2
v -0.7 0.4 -0.2
v -0.7 0.6 -0.2
v -0.5 0.2 -0.2
v -0.5 0.3 -0.2
v 0.3 0.2 -0.2
v 0.3 0.3 -0.2
v 0.5 0.2 -0.2
v 0.5 0.3 -0.2
v 0.5 0.4 -0.2
v 0.5 0.5 -0.2
v 0.6 0.4 -0.2
v 0.6 0.5 -0.2
v -0.7 0.7 -0.3
v -0.7 0.8 -0.3
v -0.6 0.7 -0.3
v -0.6 0.8 -0.3
v 0.4 0.7 -0.3
v 0.4 0.8 -0.3
v 0.5 0.7 -0.3
v 0.5 0.8 -0.3
v -0.7 0.4 -0.4
v -0.7 0.7 -0.4
v -0.6 0.4 -0.4
v -0.6 0.6 -0.4
v -0.6 0.7 -0.4
v -0.6 0.8 -0.4
v -0.5 0.2 -0.4
v -0.5 0.3 -0.4
v -0.5 0.6 -0.4
v -0.5 0.7 -0.4
v 0.3 0.2 -0.4
v 0.3 0.3 -0.4
v 0.3 0.6 -0.4
v 0.3 0.7 -0.4
v 0.4 0.4 -0.4
v 0.4 0.6 -0.4
v 0.4 0.7 -0.4
v 0.4 0.8 -0.4
v 0.5 0.4 -0.4
v 0.5 0.7 -0.4
v -0.8 0.3 -0.5
v -0.8 0.4 -0.5
v -0.7 0.3 -0.5
v -0.7 0.4 -0.5
v -0.6 0.4 -0.5
v -0.6 0.6 -0.5
v -0.5 0.6 -0.5
v -0.5 0.7 -0.5
v 0.3 0.6 -0.5
v 0.3 0.7 -0.5
v 0.4 0.4 -0.5
v 0.4 0.6 -0.5
v 0.5 0.3 -0.5
v 0.5 0.4 -0.5
v 0.6 0.3 -0.5
v 0.6 0.4 -0.5
v -0.7 0.3 -0.6
v -0.7 0.4 -0.6
v 0.5 0.3 -0.6
v 0.5 0.4 -0.6
v -0.5 0.2 0.4
v 0.3 0.2 0.4
v -0.7 0.2 0.2
v -0.5 0.2 0.2
v 0.3 0.2 0.2
v 0.5 0.2 0.2
v -0.7 0.2 -0.2
v -0.5 0.2 -0.2
v 0.3 0.2 -0.2
v 0.5 0.2 -0.2
v -0.5 0.2 -0.4
v 0.3 0.2 -0.4
v -0.7 0.3 0.6
v 0.5 0.3 0.6
v -0.8 0.3 0.5
v -0.7 0.3 0.5
v 0.5 0.3 0.5
v 0.6 0.3 0.5
v -0.7 0.3 0.4
v -0.5 0.3 0.4
v 0.3 0.3 0.4
v 0.5 0.3 0.4
v -0.7 0.3 0.2
v -0.5 0.3 0.2
v 0.3 0.3 0.2
v 0.5 0.3 0.2
v -0.7 0.3 -0.2
v -0.5 0.3 -0.2
v 0.3 0.3 -0.2
v 0.5 0.3 -0.2
v -0.7 0.3 -0.4
v -0.5 0.3 -0.4
v 0.3 0.3 -0.4
v 0.5 0.3 -0.4
v -0.8 0.3 -0.5
v -0.7 0.3 -0.5
v 0.5 0.3 -0.5
v 0.6 0.3 -0.5
v -0.7 0.3 -0.6
v 0.5 0.3 -0.6
v 0.5 0.5 0.0999999
v 0.6 0.5 0.0999999
v 0.5 0.5 -0.1
v 0.6 0.5 -0.1
v -0.8 0.6 0.0999999
v -0.7 0.6 0.0999999
v -0.8 0.6 -0.1
v -0.7 0.6 -0.1
v -0.7 0.4 0.6
v 0.5 0.4 0.6
v -0.8 0.4 0.5
v -0.7 0.4 0.5
v -0.6 0.4 0.5
v 0.4 0.4 0.5
v 0.5 0.4 0.5
v 0.6 0.4 0.5
v -0.7 0.4 0.4
v -0.6 0.4 0.4
v 0.4 0.4 0.4
v 0.5 0.4 0.4
v -0.8 0.4 0.2
v -0.7 0.4 0.2
v 0.5 0.4 0.2
v 0.6 0.4 0.2
v -0.8 0.4 0.0999999
v -0.7 0.4 0.0999999
v 0.5 0.4 0.0999999
v 0.6 0.4 0.0999999
v -0.8 0.4 -0.1
v -0.7 0.4 -0.1
v 0.5 0.4 -0.1
v 0.6 0.4 -0.1
v -0.8 0.4 -0.2
v -0.7 0.4 -0.2
v 0.5 0.4 -0.2
v 0.6 0.4 -0.2
v -0.7 0.4 -0.4
v -0.6 0.4 -0.4
v 0.4 0.4 -0.4
v 0.5 0.4 -0.4
v -0.8 0.4 -0.5
v -0.7 0.4 -0.5
v -0.6 0.4 -0.5
v 0.4 0.4 -0.5
v 0.5 0.4 -0.5
v 0.6 0.4 -0.5
v -0.7 0.4 -0.6
v 0.5 0.4 -0.6
v 0.5 0.5 0.2
v 0.6 0.5 0.2
v 0.5 0.5 0.0999999
v 0.6 0.5 0.0999999
v 0.5 0.5 -0.1
v 0.6 0.5 -0.1
v 0.5 0.5 -0.2
v 0.6 0.5 -0.2
v -0.6 0.6 0.5
v -0.5 0.6 0.5
v 0.3 0.6 0.5
v 0.4 0.6 0.5
v -0.6 0.6 0.4
v -0.5 0.6 0.4
v 0.3 0.6 0.4
v 0.4 0.6 0.4
v -0.8 0.6 0.2
v -0.7 0.6 0.2
v -0.8 0.6 0.0999999
v -0.7 0.6 0.0999999
v 0.5 0.6 0.0999999
v 0.6 0.6 0.0999999
v -0.8 0.6 -0.1
v -0.7 0.6 -0.1
v 0.5 0.6 -0.1
v 0.6 0.6 -0.1
v -0.8 0.6 -0.2
v -0.7 0.6 -0.2
v -0.6 0.6 -0.4
v -0.5 0.6 -0.4
v 0.3 0.6 -0.4
v 0.4 0.6 -0.4
v -0.6 0.6 -0.5
v -0.5 0.6 -0.5
v 0.3 0.6 -0.5
v 0.4 0.6 -0.5
v -0.5 0.7 0.5
v 0.3 0.7 0.5
v -0.7 0.7 0.4
v -0.6 0.7 0.4
v -0.5 0.7 0.4
v 0.3 0.7 0.4
v 0.4 0.7 0.4
v 0.5 0.7 0.4
v -0.7 0.7 0.3
v -0.6 0.7 0.3
v 0.4 0.7 0.3
v 0.5 0.7 0.3
v -0.8 0.7 0.0999999
v -0.7 0.7 0.0999999
v -0.8 0.7 -0.1
v -0.7 0.7 -0.1
v -0.7 0.7 -0.3
v -0.6 0.7 -0.3
v 0.4 0.7 -0.3
v 0.5 0.7 -0.3
v -0.7 0.7 -0.4
v -0.6 0.7 -0.4
v -0.5 0.7 -0.4
v 0.3 0.7 -0.4
v 0.4 0.7 -0.4
v 0.5 0.7 -0.4
v -0.5 0.7 -0.5
v 0.3 0.7 -0.5
v -0.6 0.8 0.4
v 0.4 0.8 0.4
v -0.7 0.8 0.3
v -0.6 0.8 0.3
v 0.4 0.8 0.3
v 0.5 0.8 0.3
v -0.7 0.8 -0.3
v -0.6 0.8 -0.3
v 0.4 0.8 -0.3
v 0.5 0.8 -0.3
v -0.6 0.8 -0.4
v 0.4 0.8 -0.4

# faces
f 3/1/1 2/1/1 1/1/1
f 4/1/1 2/1/1 3/1/1
f 5/1/1 2/1/1 4/1/1
f 6/1/1 2/1/1 5/1/1
f 7/1/1 2/1/1 6/1/1
f 8/1/1 2/1/1 7/1/1
f 9/1/1 5/1/1 4/1/1
f 10/1/1 5/1/1 9/1/1
f 11/1/1 7/1/1 6/1/1
f 12/1/1 7/1/1 11/1/1
f 13/1/1 11/1/1 10/1/1
f 14/1/1 11/1/1 13/1/1
f 19/1/1 16/1/1 15/1/1
f 20/1/1 16/1/1 19/1/1
f 23/1/1 18/1/1 17/1/1
f 24/1/1 18/1/1 23/1/1
f 31/1/1 22/1/1 21/1/1
f 32/1/1 22/1/1 31/1/1
f 33/2/1 26/2/1 25/2/1
f 34/4/1 28/4/1 27/4/1
f 35/4/1 28/4/1 34/4/1
f 36/2/1 30/2/1 29/2/1
f 37/2/1 33/2/1 25/2/1
f 37/2/1 34/2/1 33/2/1
f 38/2/1 34/2/1 37/2/1
f 39/2/1 34/2/1 38/2/1
f 40/2/1 36/2/1 35/2/1
f 41/2/1 30/2/1 36/2/1
f 41/2/1 36/2/1 40/2/1
f 42/2/1 30/2/1 41/2/1
f 43/2/1 39/2/1 38/2/1
f 43/2/1 40/2/1 39/2/1
f 43/2/1 41/2/1 40/2/1
f 44/2/1 41/2/1 43/2/1
f 49/2/1 46/2/1 45/2/1
f 50/2/1 46/2/1 49/2/1
f 51/2/1 48/2/1 47/2/1
f 52/2/1 48/2/1 51/2/1
f 57/2/1 54/2/1 53/2/1
f 58/2/1 54/2/1 57/2/1
f 59/2/1 56/2/1 55/2/1
f 60/2/1 56/2/1 59/2/1
f 65/1/1 62/1/1 61/1/1
f 66/1/1 62/1/1 65/1/1
f 67/1/1 64/1/1 63/1/1
f 68/1/1 64/1/1 67/1/1
f 73/2/1 70/2/1 69/2/1
f 74/2/1 70/2/1 73/2/1
f 75/2/1 72/2/1 71/2/1
f 76/2/1 72/2/1 75/2/1
f 77/1/2 78/1/2 81/1/2
f 81/1/2 78/1/2 82/1/2
f 79/1/2 80/1/2 83/1/2
f 83/1/2 80/1/2 84/1/2
f 85/2/2 86/2/2 89/2/2
f 89/2/2 86/2/2 90/2/2
f 87/2/2 88/2/2 91/2/2
f 91/2/2 88/2/2 92/2/2
f 93/2/2 94/2/2 97/2/2
f 97/2/2 94/2/2 98/2/2
f 95/2/2 96/2/2 99/2/2
f 99/2/2 96/2/2 100/2/2
f 101/2/2 102/2/2 105/2/2
f 105/2/2 102/2/2 106/2/2
f 103/2/2 104/2/2 107/2/2
f 107/2/2 104/2/2 108/2/2
f 109/1/2 110/1/2 113/1/2
f 113/1/2 110/1/2 114/1/2
f 111/1/2 112/1/2 117/1/2
f 117/1/2 112/1/2 118/1/2
f 115/1/2 116/1/2 125/1/2
f 125/1/2 116/1/2 126/1/2
f 119/2/2 120/2/2 127/2/2
f 121/4/2 122/4/2 128/4/2
f 128/4/2 122/4/2 129/4/2
f 123/2/2 124/2/2 130/2/2
f 127/2/2 128/2/2 131/2/2
f 129/2/2 130/2/2 132/2/2
f 127/2/2 131/2/2 133/2/2
f 131/2/2 132/2/2 133/2/2
f 119/2/2 127/2/2 133/2/2
f 133/2/2 132/2/2 134/2/2
f 132/2/2 130/2/2 135/2/2
f 134/2/2 132/2/2 135/2/2
f 130/2/2 124/2/2 135/2/2
f 135/2/2 124/2/2 136/2/2
f 134/2/2 135/2/2 137/2/2
f 137/2/2 135/2/2 138/2/2
f 139/1/2 140/1/2 141/1/2
f 141/1/2 140/1/2 142/1/2
f 142/1/2 140/1/2 143/1/2
f 143/1/2 140/1/2 144/1/2
f 144/1/2 140/1/2 145/1/2
f 145/1/2 140/1/2 146/1/2
f 142/1/2 143/1/2 147/1/2
f 147/1/2 143/1/2 148/1/2
f 144/1/2 145/1/2 149/1/2
f 149/1/2 145/1/2 150/1/2
f 148/1/2 149/1/2 151/1/2
f 151/1/2 149/1/2 152/1/2
f 155/1/3 154/1/3 153/1/3
f 156/1/3 154/1/3 155/1/3
f 159/1/3 158/1/3 157/1/3
f 160/1/3 158/1/3 159/1/3
f 163/2/3 162/2/3 161/2/3
f 165/2/3 163/2/3 161/2/3
f 165/2/3 164/2/3 163/2/3
f 166/2/3 164/2/3 165/2/3
f 167/2/3 165/2/3 161/2/3
f 168/2/3 165/2/3 167/2/3
f 171/1/3 170/1/3 169/1/3
f 172/1/3 170/1/3 171/1/3
f 175/2/3 174/2/3 173/2/3
f 176/2/3 174/2/3 175/2/3
f 177/2/3 174/2/3 176/2/3
f 181/2/3 178/2/3 177/2/3
f 181/2/3 177/2/3 176/2/3
f 182/2/3 178/2/3 181/2/3
f 183/1/3 180/1/3 179/1/3
f 184/1/3 180/1/3 183/1/3
f 186/2/3 178/2/3 182/2/3
f 188/2/3 186/2/3 185/2/3
f 189/2/3 178/2/3 186/2/3
f 189/2/3 186/2/3 188/2/3
f 190/2/3 178/2/3 189/2/3
f 191/2/3 188/2/3 187/2/3
f 191/2/3 189/2/3 188/2/3
f 192/2/3 189/2/3 191/2/3
f 195/2/3 194/2/3 193/2/3
f 196/2/3 194/2/3 195/2/3
f 199/2/3 198/2/3 197/2/3
f 200/2/3 198/2/3 199/2/3
f 205/1/3 202/1/3 201/1/3
f 206/1/3 202/1/3 205/1/3
f 207/1/3 204/1/3 203/1/3
f 208/1/3 204/1/3 207/1/3
f 211/1/3 210/1/3 209/1/3
f 212/1/3 210/1/3 211/1/3
f 215/1/3 214/1/3 213/1/3
f 216/1/3 214/1/3 215/1/3
f 219/1/3 218/1/3 217/1/3
f 220/1/3 218/1/3 219/1/3
f 223/1/3 222/1/3 221/1/3
f 224/1/3 222/1/3 223/1/3
f 227/1/3 226/1/3 225/1/3
f 228/1/3 226/1/3 227/1/3
f 231/1/3 230/1/3 229/1/3
f 232/1/3 230/1/3 231/1/3
f 233/1/4 234/1/4 235/1/4
f 235/1/4 234/1/4 236/1/4
f 237/1/4 238/1/4 239/1/4
f 239/1/4 238/1/4 240/1/4
f 241/1/4 242/1/4 243/1/4
f 243/1/4 242/1/4 244/1/4
f 245/1/4 246/1/4 247/1/4
f 247/1/4 246/1/4 248/1/4
f 249/1/4 250/1/4 253/1/4
f 253/1/4 250/1/4 254/1/4
f 251/1/4 252/1/4 255/1/4
f 255/1/4 252/1/4 256/1/4
f 257/1/4 258/1/4 259/1/4
f 259/1/4 258/1/4 260/1/4
f 261/1/4 262/1/4 263/1/4
f 263/1/4 262/1/4 264/1/4
f 265/2/4 266/2/4 267/2/4
f 267/2/4 266/2/4 268/2/4
f 269/2/4 270/2/4 271/2/4
f 271/2/4 270/2/4 272/2/4
f 273/2/4 274/2/4 275/2/4
f 275/2/4 274/2/4 276/2/4
f 276/2/4 274/2/4 277/2/4
f 277/2/4 278/2/4 281/2/4
f 276/2/4 277/2/4 281/2/4
f 281/2/4 278/2/4 282/2/4
f 279/1/4 280/1/4 283/1/4
f 283/1/4 280/1/4 284/1/4
f 282/2/4 278/2/4 286/2/4
f 285/2/4 286/2/4 288/2/4
f 286/2/4 278/2/4 289/2/4
f 288/2/4 286/2/4 289/2/4
f 289/2/4 278/2/4 290/2/4
f 287/2/4 288/2/4 291/2/4
f 288/2/4 289/2/4 291/2/4
f 291/2/4 289/2/4 292/2/4
f 293/1/4 294/1/4 295/1/4
f 295/1/4 294/1/4 296/1/4
f 297/2/4 298/2/4 299/2/4
f 297/2/4 299/2/4 301/2/4
f 299/2/4 300/2/4 301/2/4
f 301/2/4 300/2/4 302/2/4
f 297/2/4 301/2/4 303/2/4
f 303/2/4 301/2/4 304/2/4
f 305/1/4 306/1/4 307/1/4
f 307/1/4 306/1/4 308/1/4
f 309/1/4 310/1/4 311/1/4
f 311/1/4 310/1/4 312/1/4
f 316/1/5 314/1/5 313/1/5
f 317/1/5 314/1/5 316/1/5
f 319/1/5 316/1/5 315/1/5
f 319/1/5 318/1/5 317/1/5
f 319/1/5 317/1/5 316/1/5
f 320/1/5 318/1/5 319/1/5
f 321/1/5 318/1/5 320/1/5
f 322/1/5 318/1/5 321/1/5
f 323/1/5 321/1/5 320/1/5
f 324/1/5 321/1/5 323/1/5
f 328/1/5 326/1/5 325/1/5
f 329/1/5 326/1/5 328/1/5
f 331/1/5 328/1/5 327/1/5
f 331/1/5 330/1/5 329/1/5
f 331/1/5 329/1/5 328/1/5
f 332/1/5 330/1/5 331/1/5
f 333/1/5 330/1/5 332/1/5
f 334/1/5 330/1/5 333/1/5
f 335/1/5 331/1/5 327/1/5
f 335/4/5 332/4/5 331/4/5
f 336/4/5 332/4/5 335/4/5
f 337/4/5 334/4/5 333/4/5
f 338/1/5 330/1/5 334/1/5
f 338/4/5 334/4/5 337/4/5
f 339/1/5 335/1/5 327/1/5
f 342/1/5 330/1/5 338/1/5
f 343/4/5 340/4/5 339/4/5
f 343/1/5 339/1/5 327/1/5
f 344/4/5 340/4/5 343/4/5
f 345/4/5 342/4/5 341/4/5
f 346/1/5 330/1/5 342/1/5
f 346/4/5 342/4/5 345/4/5
f 347/1/5 344/1/5 343/1/5
f 347/1/5 345/1/5 344/1/5
f 347/1/5 346/1/5 345/1/5
f 347/1/5 343/1/5 327/1/5
f 348/1/5 346/1/5 347/1/5
f 349/1/5 330/1/5 346/1/5
f 349/1/5 346/1/5 348/1/5
f 350/1/5 330/1/5 349/1/5
f 351/1/5 349/1/5 348/1/5
f 352/1/5 349/1/5 351/1/5
f 355/1/5 354/1/5 353/1/5
f 356/1/5 354/1/5 355/1/5
f 359/1/5 358/1/5 357/1/5
f 360/1/5 358/1/5 359/1/5
f 361/1/6 362/1/6 364/1/6
f 364/1/6 362/1/6 365/1/6
f 365/1/6 362/1/6 366/1/6
f 366/1/6 362/1/6 367/1/6
f 363/1/6 364/1/6 369/1/6
f 364/1/6 365/1/6 369/1/6
f 369/1/6 365/1/6 370/1/6
f 367/1/6 368/1/6 371/1/6
f 366/1/6 367/1/6 371/1/6
f 371/1/6 368/1/6 372/1/6
f 363/1/6 369/1/6 373/1/6
f 373/1/6 369/1/6 374/1/6
f 372/1/6 368/1/6 375/1/6
f 375/1/6 368/1/6 376/1/6
f 377/1/6 378/1/6 381/1/6
f 381/1/6 378/1/6 382/1/6
f 379/1/6 380/1/6 383/1/6
f 383/1/6 380/1/6 384/1/6
f 385/1/6 386/1/6 389/1/6
f 387/1/6 388/1/6 392/1/6
f 389/1/6 390/1/6 393/1/6
f 385/1/6 389/1/6 393/1/6
f 393/1/6 390/1/6 394/1/6
f 394/1/6 390/1/6 395/1/6
f 391/1/6 392/1/6 396/1/6
f 392/1/6 388/1/6 397/1/6
f 396/1/6 392/1/6 397/1/6
f 397/1/6 388/1/6 398/1/6
f 394/1/6 395/1/6 399/1/6
f 395/1/6 396/1/6 399/1/6
f 396/1/6 397/1/6 399/1/6
f 399/1/6 397/1/6 400/1/6
f 401/1/6 402/1/6 403/1/6
f 403/1/6 402/1/6 404/1/6
f 405/1/6 406/1/6 407/1/6
f 407/1/6 406/1/6 408/1/6
f 409/2/6 410/2/6 413/2/6
f 413/2/6 410/2/6 414/2/6
f 411/2/6 412/2/6 415/2/6
f 415/2/6 412/2/6 416/2/6
f 417/1/6 418/1/6 419/1/6
f 419/1/6 418/1/6 420/1/6
f 421/1/6 422/1/6 425/1/6
f 425/1/6 422/1/6 426/1/6
f 423/1/6 424/1/6 427/1/6
f 427/1/6 424/1/6 428/1/6
f 429/2/6 430/2/6 433/2/6
f 433/2/6 430/2/6 434/2/6
f 431/2/6 432/2/6 435/2/6
f 435/2/6 432/2/6 436/2/6
f 437/2/6 438/2/6 441/2/6
f 441/2/6 438/2/6 442/2/6
f 439/2/6 440/2/6 445/2/6
f 445/2/6 440/2/6 446/2/6
f 443/2/6 444/2/6 447/2/6
f 447/2/6 444/2/6 448/2/6
f 449/1/6 450/1/6 451/1/6
f 451/1/6 450/1/6 452/1/6
f 453/2/6 454/2/6 457/2/6
f 457/2/6 454/2/6 458/2/6
f 455/2/6 456/2/6 461/2/6
f 461/2/6 456/2/6 462/2/6
f 459/2/6 460/2/6 463/2/6
f 463/2/6 460/2/6 464/2/6
f 465/2/6 466/2/6 468/2/6
f 468/2/6 466/2/6 469/2/6
f 467/2/6 468/2/6 471/2/6
f 469/2/6 470/2/6 471/2/6
f 468/2/6 469/2/6 471/2/6
f 471/2/6 470/2/6 472/2/6
f 472/2/6 470/2/6 473/2/6
f 473/2/6 470/2/6 474/2/6
f 472/2/6 473/2/6 475/2/6
f 475/2/6 473/2/6 476/2/6
